<?xml version="1.0" encoding="utf-8" ?><svg xmlns="http://www.w3.org/2000/svg" xmlns:xlink="http://www.w3.org/1999/xlink" width="1024" height="1024" viewBox="0 0 1024 1024"><path fill="#8FFD16" fill-opacity="0.98823529" d="M169.457 676.01C163.62 672.771 159.417 670.611 159.134 663.488C158.892 657.383 159.001 651.401 159.026 645.302L159.054 614.317L159.035 512.162L158.837 383.227L158.631 330.72C158.596 320.694 158.294 310.578 158.656 300.561C158.801 296.549 158.757 291.104 161.576 287.986C166.195 282.877 218.537 254.664 228.741 248.754L417.251 140.724L474.639 108.008C481.348 104.204 508.749 87.0259 514.403 89.2707C530.004 95.4637 547.767 106.897 562.611 115.296L672.238 177.984L805.515 254.885C822.954 265.088 840.391 275.295 857.898 285.378C864.133 288.969 864.966 293.525 864.887 300.25C864.581 326.525 864.574 352.788 864.555 379.064L864.539 561.592L864.633 632.979C864.667 643.533 865.106 656.148 864.182 666.643C863.86 670.297 857.773 673.869 854.858 675.73C852.696 676.473 850.782 677.812 848.806 678.943C836.99 685.702 825.564 693.104 813.861 700.052L773.474 723.999C770.406 725.836 758.109 732.924 755.827 734.743C750.506 737.602 744.353 741.389 739.246 744.72C719.292 757.735 697.743 768.93 677.82 781.867L569.612 847.158L536.029 867.661C529.625 871.546 523.279 875.575 516.53 878.844C512.508 880.792 507.93 879.573 504.117 877.757C502.802 876.524 496.698 873.038 494.779 871.879L473.62 859.04C441.364 839.339 409.002 819.813 376.534 800.463L235.787 715.521L196.272 691.955C187.803 686.869 178.015 680.668 169.457 676.01ZM513.199 864.701C530.804 854.925 549.86 842.609 567.451 832.089L707.882 747.323C732.738 732.365 758.547 716.391 783.451 701.904L817.928 681.699C829.052 675.25 839.782 669.275 850.426 662.002C851.704 652.911 851.054 634.609 851.052 624.732L851.246 556.287L851.579 420.155C851.641 406.018 853.095 302.911 850.483 297.702C844.661 292.825 837.561 289.04 831.031 285.104L794.85 263.765C759.896 243.078 724.738 222.738 689.381 202.749L567.362 132.671L535.316 114.551C529.589 111.291 516.066 102.252 510.342 102.542C430.508 147.296 351.061 192.738 272.01 238.861L212.551 273.265C205.885 277.071 177.205 293.258 172.913 297.325C171.118 308.273 171.97 327.317 171.989 339.21C171.967 365.835 172.096 392.459 172.378 419.083L172.901 599.303C172.933 605.253 172.121 661.006 174.32 662.451C199.86 679.239 227.367 694.473 253.616 710.245C315.251 748.023 377.156 785.359 439.324 822.252C455.237 831.938 471.22 841.509 487.27 850.966C491.61 853.549 509.364 865.511 513.199 864.701Z"/><path fill="#36AD00" d="M510.342 102.542C516.066 102.252 529.589 111.291 535.316 114.551L567.362 132.671L689.381 202.749C724.738 222.738 759.896 243.078 794.85 263.765L831.031 285.104C837.561 289.04 844.661 292.825 850.483 297.702C853.095 302.911 851.641 406.018 851.579 420.155L851.246 556.287L851.052 624.732C851.054 634.609 851.704 652.911 850.426 662.002C839.782 669.275 829.052 675.25 817.928 681.699L783.451 701.904C758.547 716.391 732.738 732.365 707.882 747.323L567.451 832.089C549.86 842.609 530.804 854.925 513.199 864.701C509.364 865.511 491.61 853.549 487.27 850.966C471.22 841.509 455.237 831.938 439.324 822.252C377.156 785.359 315.251 748.023 253.616 710.245C227.367 694.473 199.86 679.239 174.32 662.451C172.121 661.006 172.933 605.253 172.901 599.303L172.378 419.083C172.096 392.459 171.967 365.835 171.989 339.21C171.97 327.317 171.118 308.273 172.913 297.325C177.205 293.258 205.885 277.071 212.551 273.265L272.01 238.861C351.061 192.738 430.508 147.296 510.342 102.542ZM768.366 361.804C772.679 365.506 791.236 385.425 794.262 386.641L795.217 385.715L796.268 385.871C796.687 385.073 797.527 382.596 797.881 381.622L798.31 382.361C793.772 396.115 791.929 398.134 801.585 410.503L802.43 410.597C805.074 407.477 809.595 393.595 810.025 389.65C810.717 390.192 810.504 389.909 810.793 390.385C811.907 388.448 813.829 381.36 814.675 378.979C818.285 368.824 821.326 354.697 825.341 344.961C827.99 336.348 831.258 324.596 834.527 316.495C834.471 324.556 834.295 332.616 834.001 340.672C834.58 349.979 833.615 364.342 833.461 374L832.141 449.731C831.965 471.729 831.644 493.726 831.18 515.719C831.062 523.326 831.408 539.336 830.581 546.158C830.515 565.594 830.239 585.029 829.755 604.459C829.538 615.249 829.605 627.215 829.05 637.852L796.472 618.989C794.406 617.813 785.706 612.747 784.304 612.242L783.243 612.651C779.059 610.577 775.65 608.299 771.716 605.856C770.701 605.225 765.332 607.209 764.319 607.852C765.583 608.368 765.837 608.358 766.801 609.219C768.702 610.917 773.379 610.99 774.281 613.74C778.797 617.441 786.118 620.424 790.555 623.844C805.789 631.546 823.673 641.849 838.94 650.198L839.42 650L841.717 428.858C842.027 402.802 842.139 376.744 842.051 350.687C842.093 335.437 842.306 319.994 841.859 304.724C841.812 303.121 841.762 302.008 840.566 301.065C831.45 293.883 818.791 286.722 808.904 280.908L755.179 249.498C674.582 202.439 593.467 156.275 511.846 111.014C507.711 112.611 503.699 115.11 499.797 117.241C480.229 127.928 461.088 139.401 441.714 150.422C373.75 188.765 306.115 227.688 238.815 267.185C230.063 272.331 186.01 297.364 181.23 302.769C180.678 308.031 181.125 312.843 180.932 317.987C180.528 328.769 180.755 339.276 180.901 350.066L181.852 422.665L182.694 511.499C183.307 557.375 184.36 606.272 183.629 652.102C183.508 654.209 183.25 655.741 184.854 657.374C186.767 659.321 223.603 681.613 226.516 682.728C225.736 679.802 194.613 663.796 190.595 660.135L190.667 659.147C191.612 657.619 193.296 655.141 195.034 654.62C200.005 653.127 205.345 647.224 209.332 644.877C216.679 640.552 223.577 635.358 230.865 630.839C238.875 625.872 247.456 621.502 255.667 616.823L256.096 615.743C248.902 615.095 244.207 619.609 238.18 622.186C223.117 628.627 209.67 637.836 195.101 645.258C192.092 646.784 188.503 649.258 185.487 650.521C186.819 648.17 188.621 647.921 190.852 646.629C194.524 644.563 193.524 638.84 193.551 635.325C193.585 630.987 192.981 625.915 193.962 621.71C194.473 616.257 193.615 604.248 193.613 597.96C193.607 576.503 192.524 554.659 192.533 533.203C192.141 521.832 191.945 510.456 191.944 499.078C191.206 493.566 191.505 481.612 191.324 475.244C190.613 450.329 190.477 425.573 189.687 400.632C189.362 372.846 188.875 341.615 187.052 314.053C193.432 329.737 198.261 347.997 203.95 364.096C206.038 370.004 207.744 376.496 210.137 382.25C210.85 378.692 209.044 378.222 208.517 374.825C208.21 372.849 207.725 370.522 206.54 368.894C207.543 370.11 207.814 370.889 209.061 371.306L210.242 369.675C214.123 370.345 214.944 369.513 218.024 367.087L218.299 364.371C219.992 366.975 220.527 372.312 222.832 374.117C220.883 366.939 216.895 356.953 214.314 349.605C216.811 351.392 223.373 373.449 226.031 378.815C232.96 373.53 245.052 361.508 250.622 354.446C254.339 361.537 259.227 367.564 263.835 374.03C265.123 375.837 271.611 383.543 272.087 384.893C276.558 388.202 281.448 397.991 284.846 402.744C290.915 399.159 295.692 393.907 300.691 388.936C308.93 380.788 317.038 372.508 325.011 364.1C328.665 360.254 334.426 353.577 338.125 350.35C347.266 359.476 380.383 395.872 387.761 399.964C391.901 398.9 390.733 394.452 393.76 393.524C399.241 386.511 410.928 364.673 416.037 355.743C430.949 330.088 445.695 304.337 460.273 278.491C463.591 269.368 481.312 243.433 483.884 232.25C483.839 231.839 483.882 230.558 483.206 230.418C474.682 228.662 448.622 236.149 441.473 237.796L354.787 258.628C352.651 259.709 330.689 265.048 326.969 265.988C314.795 269.116 302.603 272.174 290.394 275.162C285.551 276.377 279.708 278.13 275.018 279.118L274.891 278.579C277.984 277.802 280.934 277.424 282.847 274.84C283.006 273.684 283.163 272.732 283.387 271.588C284.91 269.953 285.33 269.806 285.5 267.703L284.971 267.136C282.278 267.401 280.263 267.46 277.592 267.5C282.43 266.663 287.716 265.692 292.367 264.145C305.406 259.809 318.785 256.005 332.213 252.986C327.304 248.802 327.391 249.94 322.026 248.927L321.453 247.98C307.254 250.681 293.108 256.011 279.623 259.166C275.121 260.564 270.976 261.831 266.394 263.002C272.987 259.602 279.535 256.114 286.035 252.54C296.399 245.609 312.257 237.144 323.431 230.629L400.077 185.892L466.937 146.998C475.222 142.184 493.261 130.935 501.062 127.642L500.994 135.592C503.905 136.552 517.928 136.787 521.786 136.762C521.847 142.287 521.8 148.237 522.091 153.723C522.719 146.923 522.405 134.704 522.402 127.556C529.873 131.418 537.483 136.204 544.819 140.461L593.133 168.531C606.502 176.082 619.798 183.761 633.019 191.568C637.07 193.911 648.794 200.241 652.066 202.669C659.514 206.759 670.869 213.287 677.978 217.908C691.16 225.35 706.919 234.146 719.565 242.207C725.642 245.298 732.612 249.706 738.704 253.082C742.434 255.149 751.954 260.082 754.674 262.236C745.766 259.804 735.701 256.529 726.882 253.761C718.007 252.025 705.489 247.958 695.86 245.812C698.361 247.966 720.931 253.058 726.005 254.424C718.718 255.155 721.363 258.19 717.8 259.769L717.2 259.576C714.113 258.605 694.174 253.36 692.372 253.844C695.598 254.762 699.822 256.095 703.011 256.819C707.736 256.753 754.726 270.385 762.658 273.146C761.181 272.976 759.979 272.802 758.513 272.554C758.239 274.832 763.067 280.665 764.64 282.795C767.782 283.98 773.706 284.495 775.638 285.65L775.479 286.231L776.315 286.58C784.885 290.076 818.327 297.442 823.161 302.101C823.475 306.706 810.032 344.745 807.694 351.523C806.341 347.8 812.596 336.995 813.114 333.457C813.756 329.071 811.911 319.767 811.278 315.217C810.539 310.852 806.709 302.155 802.832 300.024C798.976 297.904 795.071 293.882 791.375 291.969C787.804 290.121 769.1 286.286 767.249 284.369C763.899 282.949 752.028 280.252 747.996 279.118C733.132 274.936 717.185 271.488 702.447 266.903C689.778 263.28 675.633 260.254 662.753 257.032C633.048 249.415 603.253 242.151 573.376 235.24C567.502 233.87 544.439 228.077 540.181 228.524C539.401 229.525 538.894 230.197 539.021 231.524C539.476 236.278 617.664 372.276 622.809 378.641L623.4 378.567C628.993 384.756 643.01 415.474 649.26 418.169C649.153 418.208 651.776 417.287 651.473 417.312C656.873 416.864 665.454 420.357 669.82 423.125C672.099 424.57 670.867 428.711 675.648 430.246C677.201 429.549 678.578 429.657 679.611 428.541C681.027 427.011 684.23 425.49 686.068 424.471L686.014 423.96L685.173 423.824C681.858 423.271 678.035 422.662 677.639 418.639C678.522 415.899 679.393 416.903 679.941 413.319C683.144 409.097 693.198 410.297 696.802 406.716C696.852 406.666 697.851 405.937 697.899 405.902C696.156 396.35 686.594 393.444 680.833 387.33L680.806 386.676C679.983 369.738 665.389 378.162 661.356 364.836C660.322 361.422 667.158 358.634 667.852 356.452C666.883 354.575 663.981 352.784 663.991 351.804C668.539 354.826 673.985 360.744 678.051 364.653C694.171 380.152 710.263 395.506 726.805 410.568L727.933 410.583C729.923 409.12 731.897 406.375 733.511 404.457C745.323 390.418 756.414 375.719 768.366 361.804ZM211.357 297.317L211.387 297.889L210.675 298.163C209.53 298.612 207.268 299.331 206.877 300.352C205.231 304.643 204.54 307.553 202.028 311.604C203.013 318.276 212.786 339.945 212.268 343.635C210.772 341.44 197.609 304.668 197.868 303.209C200.742 299.71 206.998 298.469 211.357 297.317Z"/><defs><linearGradient id="gradient_0" gradientUnits="userSpaceOnUse" x1="573.9292" y1="641.61005" x2="464.815" y2="219.75963"><stop offset="0" stop-color="#D5FF61"/><stop offset="1" stop-color="#FFFFB4"/></linearGradient></defs><path fill="url(#gradient_0)" d="M501.062 127.642L500.994 135.592C503.905 136.552 517.928 136.787 521.786 136.762C521.847 142.287 521.8 148.237 522.091 153.723C522.719 146.923 522.405 134.704 522.402 127.556C529.873 131.418 537.483 136.204 544.819 140.461L593.133 168.531C606.502 176.082 619.798 183.761 633.019 191.568C637.07 193.911 648.794 200.241 652.066 202.669C659.514 206.759 670.869 213.287 677.978 217.908C691.16 225.35 706.919 234.146 719.565 242.207C725.642 245.298 732.612 249.706 738.704 253.082C742.434 255.149 751.954 260.082 754.674 262.236C745.766 259.804 735.701 256.529 726.882 253.761C718.007 252.025 705.489 247.958 695.86 245.812C698.361 247.966 720.931 253.058 726.005 254.424C718.718 255.155 721.363 258.19 717.8 259.769L717.2 259.576C714.113 258.605 694.174 253.36 692.372 253.844C695.598 254.762 699.822 256.095 703.011 256.819C707.736 256.753 754.726 270.385 762.658 273.146C761.181 272.976 759.979 272.802 758.513 272.554C758.239 274.832 763.067 280.665 764.64 282.795C767.782 283.98 773.706 284.495 775.638 285.65L775.479 286.231C772.593 285.482 770.171 284.944 767.249 284.369C763.899 282.949 752.028 280.252 747.996 279.118C733.132 274.936 717.185 271.488 702.447 266.903C689.778 263.28 675.633 260.254 662.753 257.032C633.048 249.415 603.253 242.151 573.376 235.24C567.502 233.87 544.439 228.077 540.181 228.524C539.401 229.525 538.894 230.197 539.021 231.524C539.476 236.278 617.664 372.276 622.809 378.641L623.4 378.567C628.993 384.756 643.01 415.474 649.26 418.169C649.153 418.208 651.776 417.287 651.473 417.312C656.873 416.864 665.454 420.357 669.82 423.125C672.099 424.57 670.867 428.711 675.648 430.246C677.201 429.549 678.578 429.657 679.611 428.541C681.027 427.011 684.23 425.49 686.068 424.471L686.014 423.96L685.173 423.824C681.858 423.271 678.035 422.662 677.639 418.639C678.522 415.899 679.393 416.903 679.941 413.319C683.144 409.097 693.198 410.297 696.802 406.716C696.852 406.666 697.851 405.937 697.899 405.902C696.156 396.35 686.594 393.444 680.833 387.33L680.806 386.676C679.983 369.738 665.389 378.162 661.356 364.836C660.322 361.422 667.158 358.634 667.852 356.452C666.883 354.575 663.981 352.784 663.991 351.804C668.539 354.826 673.985 360.744 678.051 364.653C694.171 380.152 710.263 395.506 726.805 410.568L727.933 410.583C729.923 409.12 731.897 406.375 733.511 404.457C745.323 390.418 756.414 375.719 768.366 361.804C772.679 365.506 791.236 385.425 794.262 386.641L795.217 385.715L796.268 385.871C796.687 385.073 797.527 382.596 797.881 381.622L798.31 382.361C793.772 396.115 791.929 398.134 801.585 410.503L802.43 410.597C805.074 407.477 809.595 393.595 810.025 389.65C810.717 390.192 810.504 389.909 810.793 390.385C811.907 388.448 813.829 381.36 814.675 378.979C818.285 368.824 821.326 354.697 825.341 344.961C827.99 336.348 831.258 324.596 834.527 316.495C834.471 324.556 834.295 332.616 834.001 340.672C834.58 349.979 833.615 364.342 833.461 374L832.141 449.731C831.965 471.729 831.644 493.726 831.18 515.719C831.062 523.326 831.408 539.336 830.581 546.158C830.515 565.594 830.239 585.029 829.755 604.459C829.538 615.249 829.605 627.215 829.05 637.852L796.472 618.989C794.406 617.813 785.706 612.747 784.304 612.242C774.189 605.738 761.648 600.163 751.885 592.986C749.897 591.524 749.271 590.26 749.066 587.939C747.66 589.472 748.253 590.389 749.423 592.017C744.351 592.043 740.57 581.259 735.737 577.608L735.307 575.331C734.69 578.79 734.448 581.808 734.198 585.29C733.858 590.018 732 592.566 735.017 596.954C735.491 597.637 735.993 598.3 736.522 598.941C742.9 600.398 749.27 605.911 755.173 608.968C756.796 609.808 762.105 612.4 763.252 613.303L763.634 613.539C766.937 615.617 772.563 620.583 775.744 621.504L776.086 621.154C779.485 622.719 785.618 626.413 788.487 627.351C787.046 625.172 779.524 621.87 776.709 620.484L777.812 617.185C781.527 619.21 786.772 623.065 790.555 623.844C805.789 631.546 823.673 641.849 838.94 650.198L839.42 650C838.434 652.673 839.537 654.456 839.256 657.436C831.87 661.705 823.25 667.384 815.892 671.215C807.632 675.941 800.526 680.841 792.517 685.691L733.867 721.499C685.195 752.276 636.043 782.29 586.431 811.529C568.741 822.215 550.96 832.752 533.092 843.139C528.956 845.541 515.491 853.846 511.587 855.49C496.927 847.76 481.087 837.511 466.375 829.021C415.674 799.393 365.362 769.103 315.452 738.16C293.908 725.139 272.531 711.845 251.325 698.279C246.58 695.293 230.15 685.644 226.516 682.728C225.736 679.802 194.613 663.796 190.595 660.135L190.667 659.147C191.612 657.619 193.296 655.141 195.034 654.62C200.005 653.127 205.345 647.224 209.332 644.877C216.679 640.552 223.577 635.358 230.865 630.839C238.875 625.872 247.456 621.502 255.667 616.823L256.096 615.743C248.902 615.095 244.207 619.609 238.18 622.186C223.117 628.627 209.67 637.836 195.101 645.258C192.092 646.784 188.503 649.258 185.487 650.521C186.819 648.17 188.621 647.921 190.852 646.629C194.524 644.563 193.524 638.84 193.551 635.325C193.585 630.987 192.981 625.915 193.962 621.71C194.473 616.257 193.615 604.248 193.613 597.96C193.607 576.503 192.524 554.659 192.533 533.203C192.141 521.832 191.945 510.456 191.944 499.078C191.206 493.566 191.505 481.612 191.324 475.244C190.613 450.329 190.477 425.573 189.687 400.632C189.362 372.846 188.875 341.615 187.052 314.053C193.432 329.737 198.261 347.997 203.95 364.096C206.038 370.004 207.744 376.496 210.137 382.25C210.85 378.692 209.044 378.222 208.517 374.825C208.21 372.849 207.725 370.522 206.54 368.894C207.543 370.11 207.814 370.889 209.061 371.306L210.242 369.675C214.123 370.345 214.944 369.513 218.024 367.087L218.299 364.371C219.992 366.975 220.527 372.312 222.832 374.117C227.013 384.578 231.16 399.328 235.704 409.065L236.588 409.032L246.86 437.666C248.903 434.871 260.319 424.301 263.262 423.124L264.233 423.491C264.267 422.844 264.249 421.959 264.854 421.5C268.556 418.693 279.78 406.127 283.86 405.775C285.021 407.803 285.418 408.53 286.977 410.265L287.305 410.623C286.644 407.578 285.23 408.141 285.345 405.103C286.092 404.188 286.152 404.223 286.682 403.194C286.136 403.317 284.895 403.815 284.596 403.357C281.746 398.985 273.269 389.418 272.087 384.893C276.558 388.202 281.448 397.991 284.846 402.744C290.915 399.159 295.692 393.907 300.691 388.936C308.93 380.788 317.038 372.508 325.011 364.1C328.665 360.254 334.426 353.577 338.125 350.35C347.266 359.476 380.383 395.872 387.761 399.964C391.901 398.9 390.733 394.452 393.76 393.524C399.241 386.511 410.928 364.673 416.037 355.743C430.949 330.088 445.695 304.337 460.273 278.491C463.591 269.368 481.312 243.433 483.884 232.25C483.839 231.839 483.882 230.558 483.206 230.418C474.682 228.662 448.622 236.149 441.473 237.796L354.787 258.628C352.651 259.709 330.689 265.048 326.969 265.988C314.795 269.116 302.603 272.174 290.394 275.162C285.551 276.377 279.708 278.13 275.018 279.118L274.891 278.579C277.984 277.802 280.934 277.424 282.847 274.84C283.006 273.684 283.163 272.732 283.387 271.588C284.91 269.953 285.33 269.806 285.5 267.703L284.971 267.136C282.278 267.401 280.263 267.46 277.592 267.5C282.43 266.663 287.716 265.692 292.367 264.145C305.406 259.809 318.785 256.005 332.213 252.986C327.304 248.802 327.391 249.94 322.026 248.927L321.453 247.98C307.254 250.681 293.108 256.011 279.623 259.166C275.121 260.564 270.976 261.831 266.394 263.002C272.987 259.602 279.535 256.114 286.035 252.54C296.399 245.609 312.257 237.144 323.431 230.629L400.077 185.892L466.937 146.998C475.222 142.184 493.261 130.935 501.062 127.642Z"/><path fill="#CFFE5E" d="M460.273 278.491C460.5 282.744 456.827 283.401 458.425 287.715C462.016 289.472 463.224 289.843 466.899 291.199C460.066 305.237 448.035 322.47 440.377 336.286L364.592 470.219L333.948 523.683C332.092 526.95 324.386 541.733 322.905 543.546C318.605 553.462 267.695 625.762 310.544 603.534C312.708 602.411 337.752 602.237 341.535 602.232L626.494 603.824C659.766 603.799 693.593 604.268 726.868 603.443C728.201 603.41 735.917 599.674 736.522 598.941C742.9 600.398 749.27 605.911 755.173 608.968C756.796 609.808 762.105 612.4 763.252 613.303L763.634 613.539C766.937 615.617 772.563 620.583 775.744 621.504L776.086 621.154C779.485 622.719 785.618 626.413 788.487 627.351C787.046 625.172 779.524 621.87 776.709 620.484L777.812 617.185C781.527 619.21 786.772 623.065 790.555 623.844C805.789 631.546 823.673 641.849 838.94 650.198L839.42 650C838.434 652.673 839.537 654.456 839.256 657.436C831.87 661.705 823.25 667.384 815.892 671.215C807.632 675.941 800.526 680.841 792.517 685.691L733.867 721.499C685.195 752.276 636.043 782.29 586.431 811.529C568.741 822.215 550.96 832.752 533.092 843.139C528.956 845.541 515.491 853.846 511.587 855.49C496.927 847.76 481.087 837.511 466.375 829.021C415.674 799.393 365.362 769.103 315.452 738.16C293.908 725.139 272.531 711.845 251.325 698.279C246.58 695.293 230.15 685.644 226.516 682.728C225.736 679.802 194.613 663.796 190.595 660.135L190.667 659.147C191.612 657.619 193.296 655.141 195.034 654.62C200.005 653.127 205.345 647.224 209.332 644.877C216.679 640.552 223.577 635.358 230.865 630.839C238.875 625.872 247.456 621.502 255.667 616.823L256.096 615.743C248.902 615.095 244.207 619.609 238.18 622.186C223.117 628.627 209.67 637.836 195.101 645.258C192.092 646.784 188.503 649.258 185.487 650.521C186.819 648.17 188.621 647.921 190.852 646.629C194.524 644.563 193.524 638.84 193.551 635.325C193.585 630.987 192.981 625.915 193.962 621.71C194.473 616.257 193.615 604.248 193.613 597.96C193.607 576.503 192.524 554.659 192.533 533.203C192.141 521.832 191.945 510.456 191.944 499.078C191.206 493.566 191.505 481.612 191.324 475.244C190.613 450.329 190.477 425.573 189.687 400.632C189.362 372.846 188.875 341.615 187.052 314.053C193.432 329.737 198.261 347.997 203.95 364.096C206.038 370.004 207.744 376.496 210.137 382.25C210.85 378.692 209.044 378.222 208.517 374.825C208.21 372.849 207.725 370.522 206.54 368.894C207.543 370.11 207.814 370.889 209.061 371.306L210.242 369.675C214.123 370.345 214.944 369.513 218.024 367.087L218.299 364.371C219.992 366.975 220.527 372.312 222.832 374.117C227.013 384.578 231.16 399.328 235.704 409.065L236.588 409.032L246.86 437.666C248.903 434.871 260.319 424.301 263.262 423.124L264.233 423.491C264.267 422.844 264.249 421.959 264.854 421.5C268.556 418.693 279.78 406.127 283.86 405.775C285.021 407.803 285.418 408.53 286.977 410.265L287.305 410.623C286.644 407.578 285.23 408.141 285.345 405.103C286.092 404.188 286.152 404.223 286.682 403.194C286.136 403.317 284.895 403.815 284.596 403.357C281.746 398.985 273.269 389.418 272.087 384.893C276.558 388.202 281.448 397.991 284.846 402.744C290.915 399.159 295.692 393.907 300.691 388.936C308.93 380.788 317.038 372.508 325.011 364.1C328.665 360.254 334.426 353.577 338.125 350.35C347.266 359.476 380.383 395.872 387.761 399.964C391.901 398.9 390.733 394.452 393.76 393.524C399.241 386.511 410.928 364.673 416.037 355.743C430.949 330.088 445.695 304.337 460.273 278.491Z"/><defs><linearGradient id="gradient_1" gradientUnits="userSpaceOnUse" x1="257.56931" y1="610.59296" x2="547.74548" y2="492.69357"><stop offset="0" stop-color="#BBFF39"/><stop offset="1" stop-color="#FCFFA1"/></linearGradient></defs><path fill="url(#gradient_1)" d="M460.273 278.491C460.5 282.744 456.827 283.401 458.425 287.715C462.016 289.472 463.224 289.843 466.899 291.199C460.066 305.237 448.035 322.47 440.377 336.286L364.592 470.219L333.948 523.683C332.092 526.95 324.386 541.733 322.905 543.546C318.012 546.662 295.881 589.187 293.487 597.257C292.69 599.943 292.53 604.228 292.692 607.205C295.349 608.475 301.128 611.698 303.756 611.053L305.754 609.328L306.361 609.468C303.614 613.946 298.842 611.724 304.158 618.239C306.335 620.906 311.365 624.365 311.551 627.258C308.835 626.206 309.75 626.139 307.191 626.6C319.889 634.802 318.84 635.746 328.869 646.287L353.329 671.962C357.887 676.705 362.546 681.306 367.19 685.956C387.92 706.718 407.267 728.817 428.721 748.923C436.158 755.894 442.452 765.665 451.443 770.474C451.486 771.072 451.539 771.817 451.603 772.709C457.574 782.106 470.263 792.404 475.665 801.077C478.988 806.411 487.018 813.477 488.378 816.218L487.78 816.27C481.904 810.25 468.622 795.277 462.395 790.988C457.813 794.63 457.71 793.086 452.335 792.758L452.667 794.051L452.868 793.692L452.715 794.07L452.309 794.131C430.222 772.261 408.607 748.347 386.58 726.118C384.618 723.171 368.926 707.684 365.358 704.153L364.314 705.14C361.985 705.062 358.549 703.443 356.212 702.791C350.478 701.193 338.64 696.726 333.145 696.053L330.234 693.486C326.789 688.275 316.711 672.444 313.184 668.378C312.703 667.201 308.178 660.919 307.051 659.169C300.649 649.222 293.944 639.039 288.678 628.463C288.097 627.296 288.166 626.583 287.306 625.252C291.229 624.628 291.369 628.894 294.882 629.749C291.691 626.315 285.83 618.442 281.047 617.79C276.221 617.132 251.586 633.316 245.489 636.207L245.327 635.642L245.77 634.895C248.445 633.764 249.665 632.689 251.939 631.379C263.775 624.564 268.429 626.547 268.306 611.244C264.601 612.399 260.855 615.495 256.663 616.931L255.667 616.823L256.096 615.743C248.902 615.095 244.207 619.609 238.18 622.186C223.117 628.627 209.67 637.836 195.101 645.258C192.092 646.784 188.503 649.258 185.487 650.521C186.819 648.17 188.621 647.921 190.852 646.629C194.524 644.563 193.524 638.84 193.551 635.325C193.585 630.987 192.981 625.915 193.962 621.71C194.473 616.257 193.615 604.248 193.613 597.96C193.607 576.503 192.524 554.659 192.533 533.203C192.141 521.832 191.945 510.456 191.944 499.078C191.206 493.566 191.505 481.612 191.324 475.244C190.613 450.329 190.477 425.573 189.687 400.632C189.362 372.846 188.875 341.615 187.052 314.053C193.432 329.737 198.261 347.997 203.95 364.096C206.038 370.004 207.744 376.496 210.137 382.25C210.85 378.692 209.044 378.222 208.517 374.825C208.21 372.849 207.725 370.522 206.54 368.894C207.543 370.11 207.814 370.889 209.061 371.306L210.242 369.675C214.123 370.345 214.944 369.513 218.024 367.087L218.299 364.371C219.992 366.975 220.527 372.312 222.832 374.117C227.013 384.578 231.16 399.328 235.704 409.065L236.588 409.032L246.86 437.666C248.903 434.871 260.319 424.301 263.262 423.124L264.233 423.491C264.267 422.844 264.249 421.959 264.854 421.5C268.556 418.693 279.78 406.127 283.86 405.775C285.021 407.803 285.418 408.53 286.977 410.265L287.305 410.623C286.644 407.578 285.23 408.141 285.345 405.103C286.092 404.188 286.152 404.223 286.682 403.194C286.136 403.317 284.895 403.815 284.596 403.357C281.746 398.985 273.269 389.418 272.087 384.893C276.558 388.202 281.448 397.991 284.846 402.744C290.915 399.159 295.692 393.907 300.691 388.936C308.93 380.788 317.038 372.508 325.011 364.1C328.665 360.254 334.426 353.577 338.125 350.35C347.266 359.476 380.383 395.872 387.761 399.964C391.901 398.9 390.733 394.452 393.76 393.524C399.241 386.511 410.928 364.673 416.037 355.743C430.949 330.088 445.695 304.337 460.273 278.491Z"/><defs><linearGradient id="gradient_2" gradientUnits="userSpaceOnUse" x1="191.31047" y1="583.89514" x2="276.5921" y2="586.69867"><stop offset="0" stop-color="#054801"/><stop offset="1" stop-color="#0E6901"/></linearGradient></defs><path fill="url(#gradient_2)" d="M189.687 400.632C189.362 372.846 188.875 341.615 187.052 314.053C193.432 329.737 198.261 347.997 203.95 364.096C206.038 370.004 207.744 376.496 210.137 382.25C212.383 391.073 216.196 400.362 218.701 409.372C221.112 414.743 223.742 424.323 225.844 430.14C226.832 432.873 230.663 443.86 231.198 446.415L250.01 503.152C252.03 509.304 257.217 523.624 258.538 529.347C263.578 542.321 267.35 556.499 272.157 569.632C273.849 574.254 278.493 586.668 277.389 590.782C272.059 596.805 257.986 602.992 250.518 607.764C252.242 607.858 252.808 607.573 254.358 606.967C265.918 610.091 264.942 605.625 272.45 605.605L272.693 606.195C268.471 611.455 259.463 613.897 256.663 616.931L255.667 616.823L256.096 615.743C248.902 615.095 244.207 619.609 238.18 622.186C223.117 628.627 209.67 637.836 195.101 645.258C192.092 646.784 188.503 649.258 185.487 650.521C186.819 648.17 188.621 647.921 190.852 646.629C194.524 644.563 193.524 638.84 193.551 635.325C193.585 630.987 192.981 625.915 193.962 621.71C194.473 616.257 193.615 604.248 193.613 597.96C193.607 576.503 192.524 554.659 192.533 533.203C192.141 521.832 191.945 510.456 191.944 499.078C191.206 493.566 191.505 481.612 191.324 475.244C190.613 450.329 190.477 425.573 189.687 400.632Z"/><defs><linearGradient id="gradient_3" gradientUnits="userSpaceOnUse" x1="232.85289" y1="459.54968" x2="189.30043" y2="462.31909"><stop offset="0" stop-color="#32B500"/><stop offset="1" stop-color="#127200"/></linearGradient></defs><path fill="url(#gradient_3)" d="M189.687 400.632C189.362 372.846 188.875 341.615 187.052 314.053C193.432 329.737 198.261 347.997 203.95 364.096C206.038 370.004 207.744 376.496 210.137 382.25C212.383 391.073 216.196 400.362 218.701 409.372C221.112 414.743 223.742 424.323 225.844 430.14C226.832 432.873 230.663 443.86 231.198 446.415C230.633 449.796 233.606 454.027 232.177 455.761L231.203 456.07C222.174 476.67 216.067 501.147 209.178 522.692C207.253 528.713 205.844 535.344 203.865 541.442C202.766 541.047 199.522 539.003 198.628 538.215C195.422 535.387 194.484 535.205 193.996 531.4L192.533 533.203C192.141 521.832 191.945 510.456 191.944 499.078C191.206 493.566 191.505 481.612 191.324 475.244C190.613 450.329 190.477 425.573 189.687 400.632Z"/><path fill="#127300" d="M189.687 400.632C189.362 372.846 188.875 341.615 187.052 314.053C193.432 329.737 198.261 347.997 203.95 364.096C206.038 370.004 207.744 376.496 210.137 382.25C212.383 391.073 216.196 400.362 218.701 409.372C217.028 408.199 214.737 399.63 213.732 396.819C210.97 395.029 208.053 392.49 205.172 390.542C200.529 387.403 195.394 384.308 191.031 380.862C191.162 383.41 191.098 399.358 190.311 401.179L189.687 400.632Z"/><path fill="#0A5301" d="M191.944 499.078C192.187 495.927 192.254 493.207 192.303 490.046C192.7 503.837 193.264 517.623 193.996 531.4L192.533 533.203C192.141 521.832 191.945 510.456 191.944 499.078Z"/><path fill="#127300" d="M231.198 446.415L250.01 503.152C252.03 509.304 257.217 523.624 258.538 529.347C258.406 529.815 258.274 530.284 258.141 530.753C261.407 543.392 268.824 561.293 271.97 573.319C257.29 565.005 239.083 559.198 223.606 551.546C219.651 549.591 206.499 542.319 203.865 541.442C205.844 535.344 207.253 528.713 209.178 522.692C216.067 501.147 222.174 476.67 231.203 456.07L232.177 455.761C233.606 454.027 230.633 449.796 231.198 446.415Z"/><path fill="#36AD00" d="M230.67 500.793C234.295 501.469 236.612 509.594 232.765 511.219C228.056 508.323 226.338 505.374 230.67 500.793Z"/><path fill="#5DE706" d="M250.518 607.764C252.242 607.858 252.808 607.573 254.358 606.967C265.918 610.091 264.942 605.625 272.45 605.605L272.693 606.195C268.471 611.455 259.463 613.897 256.663 616.931L255.667 616.823L256.096 615.743C248.902 615.095 244.207 619.609 238.18 622.186C223.117 628.627 209.67 637.836 195.101 645.258C192.092 646.784 188.503 649.258 185.487 650.521C186.819 648.17 188.621 647.921 190.852 646.629C194.524 644.563 193.524 638.84 193.551 635.325C193.585 630.987 192.981 625.915 193.962 621.71C194.518 627.243 194.476 633.019 194.555 638.594C198.777 637.072 205.782 633.011 209.805 630.742L236.02 615.785C240.254 613.367 246.314 609.654 250.518 607.764Z"/><path fill="#5DE706" d="M338.125 350.35C347.266 359.476 380.383 395.872 387.761 399.964C391.901 398.9 390.733 394.452 393.76 393.524C392.03 397.085 358.907 454.197 357.372 455.641C354.672 460.419 348.083 472.263 345.226 476.124C344.384 476.303 343.893 476.372 343.037 476.465C337.832 473.699 333.704 468.405 329.727 463.986C324.698 466.769 317.419 472.028 312.179 475.35C302.525 462.925 292.761 453.242 281.758 442.072C276.111 436.34 269.158 429.697 264.233 423.491C264.267 422.844 264.249 421.959 264.854 421.5C268.556 418.693 279.78 406.127 283.86 405.775C285.021 407.803 285.418 408.53 286.977 410.265L287.305 410.623C286.644 407.578 285.23 408.141 285.345 405.103C286.092 404.188 286.152 404.223 286.682 403.194C286.136 403.317 284.895 403.815 284.596 403.357C281.746 398.985 273.269 389.418 272.087 384.893C276.558 388.202 281.448 397.991 284.846 402.744C290.915 399.159 295.692 393.907 300.691 388.936C308.93 380.788 317.038 372.508 325.011 364.1C328.665 360.254 334.426 353.577 338.125 350.35Z"/><path fill="#4CCF02" d="M264.233 423.491C264.267 422.844 264.249 421.959 264.854 421.5C268.556 418.693 279.78 406.127 283.86 405.775C285.021 407.803 285.418 408.53 286.977 410.265L287.305 410.623C292.851 418.324 298.419 425.612 304.316 433.047C312.176 442.957 320.247 455.575 329.823 463.985C331.248 464.117 330.986 463.874 332.507 462.659L332.633 463.142L331.716 464.454C333.476 467.409 339.483 473.465 342.639 475.298C347.738 475.611 353.592 456.321 357.372 455.641C354.672 460.419 348.083 472.263 345.226 476.124C344.384 476.303 343.893 476.372 343.037 476.465C337.832 473.699 333.704 468.405 329.727 463.986C324.698 466.769 317.419 472.028 312.179 475.35C302.525 462.925 292.761 453.242 281.758 442.072C276.111 436.34 269.158 429.697 264.233 423.491Z"/><defs><linearGradient id="gradient_4" gradientUnits="userSpaceOnUse" x1="249.00661" y1="521.99133" x2="317.71469" y2="452.49979"><stop offset="0" stop-color="#0B6500"/><stop offset="1" stop-color="#30BB00"/></linearGradient></defs><path fill="url(#gradient_4)" d="M235.704 409.065L236.588 409.032L246.86 437.666C248.903 434.871 260.319 424.301 263.262 423.124L264.233 423.491C269.158 429.697 276.111 436.34 281.758 442.072C292.761 453.242 302.525 462.925 312.179 475.35C317.419 472.028 324.698 466.769 329.727 463.986C333.704 468.405 337.832 473.699 343.037 476.465C343.893 476.372 344.384 476.303 345.226 476.124C337.624 490.576 326.623 507.404 318.149 521.891L301.446 550.398C298.676 555.08 294.789 562.073 291.643 566.309C286.19 549.004 278.894 530.461 272.76 513.296L235.704 409.065Z"/><path fill="#4CCF02" d="M313.184 668.378C312.703 667.201 308.178 660.919 307.051 659.169C300.649 649.222 293.944 639.039 288.678 628.463C288.097 627.296 288.166 626.583 287.306 625.252C291.229 624.628 291.369 628.894 294.882 629.749C300.251 634.205 314.331 649.851 319.883 655.761L365.358 704.153L364.314 705.14C361.985 705.062 358.549 703.443 356.212 702.791C350.478 701.193 338.64 696.726 333.145 696.053L330.234 693.486C326.789 688.275 316.711 672.444 313.184 668.378Z"/><path fill="#B6FE36" d="M462.395 790.988C456.506 784.765 451.558 777.382 445.494 771.42C403.446 730.088 364.073 686.133 321.567 645.285C316.502 640.418 313.224 640.265 308.198 634.146L308.309 633.821C310.767 635.88 312.531 637.927 315.295 639.332L315.676 639.035C314.346 635.237 302.122 627.934 300.831 624.757C302.684 624.71 307.339 630.04 309.31 630.298C309.028 626.741 308.759 630.486 307.191 626.6C319.889 634.802 318.84 635.746 328.869 646.287L353.329 671.962C357.887 676.705 362.546 681.306 367.19 685.956C387.92 706.718 407.267 728.817 428.721 748.923C436.158 755.894 442.452 765.665 451.443 770.474C451.486 771.072 451.539 771.817 451.603 772.709C457.574 782.106 470.263 792.404 475.665 801.077C478.988 806.411 487.018 813.477 488.378 816.218L487.78 816.27C481.904 810.25 468.622 795.277 462.395 790.988Z"/><path fill="#8FFD16" d="M256.663 616.931C260.855 615.495 264.601 612.399 268.306 611.244C268.429 626.547 263.775 624.564 251.939 631.379C249.665 632.689 248.445 633.764 245.77 634.895L245.327 635.642L245.489 636.207C251.586 633.316 276.221 617.132 281.047 617.79C285.83 618.442 291.691 626.315 294.882 629.749C291.369 628.894 291.229 624.628 287.306 625.252C288.166 626.583 288.097 627.296 288.678 628.463C293.944 639.039 300.649 649.222 307.051 659.169C308.178 660.919 312.703 667.201 313.184 668.378C316.711 672.444 326.789 688.275 330.234 693.486L333.145 696.053C338.64 696.726 350.478 701.193 356.212 702.791C358.549 703.443 361.985 705.062 364.314 705.14L365.358 704.153C368.926 707.684 384.618 723.171 386.58 726.118C408.607 748.347 430.222 772.261 452.309 794.131L452.715 794.07L452.868 793.692L452.667 794.051L452.335 792.758C457.71 793.086 457.813 794.63 462.395 790.988C468.622 795.277 481.904 810.25 487.78 816.27L488.378 816.218C487.018 813.477 478.988 806.411 475.665 801.077C470.263 792.404 457.574 782.106 451.603 772.709C451.539 771.817 451.486 771.072 451.443 770.474C454.624 773.425 464.775 774.738 468.832 777.289C474.801 781.043 489.691 799.607 493.842 800.37C494.338 800.807 494.813 801.123 495.124 801.645C495.543 804.851 498.942 806.486 500.997 808.793C503.391 811.48 503.255 819.56 503.177 823.01C505.704 824.575 507.908 829.061 509.648 831.864C515.425 826.34 519.303 821.47 524.592 815.611C525.83 814.239 530.582 811.603 532.893 809.459L532.206 808.465C533.305 806.843 534.718 808.142 535.997 806.164C541.561 797.558 549.221 792.316 556.487 785.28C572.507 769.767 587.805 753.657 603.866 738.146C613.018 729.307 628.568 717.39 636.143 707.575C637.867 706.31 638.533 704.749 640.213 704.093L640.213 705.753C637.03 707.781 631.499 713.841 628.255 716.913C618.801 725.989 609.412 735.131 600.088 744.34C591.507 752.745 575.864 768.21 568.99 777.943C570.697 776.469 570.364 776.276 572.216 776.026C575.258 778.14 575.119 785.064 573.171 788.165C569.838 793.471 559.67 800.707 556.829 805.615L557.063 806.561L555.282 808.803C555.208 813.208 555.282 810.853 553.406 814.318C557.5 812.457 596.019 790.401 597.567 788.832C601.002 784.484 616.383 778.527 620.615 773.647C626.059 767.367 631.377 760.738 636.65 754.333L663.153 722.293C668.893 715.28 675.022 707.316 681.032 700.644C683.446 698.739 745.6 619.224 745.669 618.991C743.764 617.377 742.919 618.875 740.99 617.035C747.648 614.615 761.382 625.54 767.845 628.852C767.633 626.202 762.85 626.934 761.117 622.989C761.422 622.054 761.824 621.192 762.265 620.313C762.184 619.716 762.123 619.117 762.082 618.516C761.966 616.564 761.95 614.77 763.252 613.303L763.634 613.539C766.937 615.617 772.563 620.583 775.744 621.504L776.086 621.154C779.485 622.719 785.618 626.413 788.487 627.351C787.046 625.172 779.524 621.87 776.709 620.484L777.812 617.185C781.527 619.21 786.772 623.065 790.555 623.844C805.789 631.546 823.673 641.849 838.94 650.198L839.42 650C838.434 652.673 839.537 654.456 839.256 657.436C831.87 661.705 823.25 667.384 815.892 671.215C807.632 675.941 800.526 680.841 792.517 685.691L733.867 721.499C685.195 752.276 636.043 782.29 586.431 811.529C568.741 822.215 550.96 832.752 533.092 843.139C528.956 845.541 515.491 853.846 511.587 855.49C496.927 847.76 481.087 837.511 466.375 829.021C415.674 799.393 365.362 769.103 315.452 738.16C293.908 725.139 272.531 711.845 251.325 698.279C246.58 695.293 230.15 685.644 226.516 682.728C225.736 679.802 194.613 663.796 190.595 660.135L190.667 659.147C191.612 657.619 193.296 655.141 195.034 654.62C200.005 653.127 205.345 647.224 209.332 644.877C216.679 640.552 223.577 635.358 230.865 630.839C238.875 625.872 247.456 621.502 255.667 616.823L256.663 616.931Z"/><defs><linearGradient id="gradient_5" gradientUnits="userSpaceOnUse" x1="313.57498" y1="758.22607" x2="368.83493" y2="698.52789"><stop offset="0" stop-color="#034701"/><stop offset="1" stop-color="#239700"/></linearGradient></defs><path fill="url(#gradient_5)" d="M245.489 636.207C251.586 633.316 276.221 617.132 281.047 617.79C285.83 618.442 291.691 626.315 294.882 629.749C291.369 628.894 291.229 624.628 287.306 625.252C288.166 626.583 288.097 627.296 288.678 628.463C293.944 639.039 300.649 649.222 307.051 659.169C308.178 660.919 312.703 667.201 313.184 668.378C316.711 672.444 326.789 688.275 330.234 693.486L333.145 696.053C338.64 696.726 350.478 701.193 356.212 702.791C358.549 703.443 361.985 705.062 364.314 705.14L365.358 704.153C368.926 707.684 384.618 723.171 386.58 726.118C408.607 748.347 430.222 772.261 452.309 794.131C456.169 798.765 462.197 804.379 465.417 808.702L462.225 809.877C442.874 799.616 421.459 786.102 402.322 775.047L265.798 695.47C245.463 683.623 225.363 671.43 204.792 659.995C216.767 651.549 233.616 644.369 245.489 636.207Z"/><path fill="#36AD00" d="M333.145 696.053C338.64 696.726 350.478 701.193 356.212 702.791C358.549 703.443 361.985 705.062 364.314 705.14L365.358 704.153C368.926 707.684 384.618 723.171 386.58 726.118C387.093 730.389 407.334 746.448 408.059 750.751C406.783 749.743 407.228 749.88 405.784 749.4C406.102 750.06 406.399 750.729 406.676 751.407C410.078 759.959 397.502 763.256 395.916 766.89C396.523 768.981 397.222 768.963 398.97 770.8L398.446 771.082C394.578 768.004 378.962 749.397 374.591 744.388C361.661 729.568 344.823 711.729 333.145 696.053Z"/><path fill="#36AD00" d="M313.184 668.378C316.711 672.444 326.789 688.275 330.234 693.486C318.447 690.296 305.438 685.014 293.572 681.54C291.32 680.88 289.525 681.525 288.23 679.651C289.672 678.536 297.08 683.034 298.883 682.776C304.906 681.914 313.165 681.02 318.813 679.009C318.92 677.745 314.237 671.957 313.184 668.378Z"/><defs><linearGradient id="gradient_6" gradientUnits="userSpaceOnUse" x1="722.58112" y1="720.88086" x2="682.80347" y2="659.82104"><stop offset="0" stop-color="#075801"/><stop offset="1" stop-color="#219E00"/></linearGradient></defs><path fill="url(#gradient_6)" d="M740.99 617.035C747.648 614.615 761.382 625.54 767.845 628.852C771.314 631.358 776.483 633.886 780.235 636.207C792.302 643.674 808.157 651.129 819.629 659.222C804.308 669.434 783.122 680.785 766.777 690.419L664.406 750.492L617.656 777.45C612.613 780.348 602.379 786.874 597.567 788.832C601.002 784.484 616.383 778.527 620.615 773.647C626.059 767.367 631.377 760.738 636.65 754.333L663.153 722.293C668.893 715.28 675.022 707.316 681.032 700.644C683.446 698.739 745.6 619.224 745.669 618.991C743.764 617.377 742.919 618.875 740.99 617.035Z"/><path fill="#4CCF02" d="M776.709 620.484L777.812 617.185C781.527 619.21 786.772 623.065 790.555 623.844C805.789 631.546 823.673 641.849 838.94 650.198L839.42 650C838.434 652.673 839.537 654.456 839.256 657.436C831.87 661.705 823.25 667.384 815.892 671.215C819.298 666.214 832.746 662.004 834.684 658.675C834.23 657.613 831.662 654.186 830.727 653.763C820.027 648.918 810.569 642.068 801.028 635.281C797.22 632.572 792.806 630.385 788.9 627.645L788.487 627.351C787.046 625.172 779.524 621.87 776.709 620.484Z"/><path fill="#127300" d="M542.858 821.088C545.092 818.484 552.236 811.958 555.282 808.803C555.208 813.208 555.282 810.853 553.406 814.318C552.912 814.768 544.109 820.278 542.858 821.088Z"/><path fill="#0A5301" d="M462.225 809.877L465.417 808.702C467.379 811.097 468.553 812.393 470.751 814.572C467.837 813.107 464.762 811.129 462.225 809.877Z"/><path fill="#5DE706" d="M542.297 820.848L542.783 821.411C541.195 823.862 537.832 826.638 535.483 828.333L535.137 827.828C536.987 825.497 540.029 822.91 542.297 820.848Z"/><path fill="#5DE706" d="M464.483 616.52L521.757 616.624C529.195 616.644 543.453 616.261 550.511 616.903L549.917 616.957C543.161 617.517 524.658 616.569 520.096 617.385L519.992 618.173C522.096 619.471 525.354 618.328 527.151 619.198C534.911 622.954 544.982 625.099 553.347 627.127C566.361 630.281 580.406 629.464 592.591 635.35C607.729 642.135 613.134 654.935 628.491 660.268C628.943 660.425 632.43 661.916 632.487 661.902C634.261 661.48 641.074 656.767 642.255 656.751C635.675 662.072 627.016 665.488 619.37 668.944L586.766 683.99C581.677 686.388 573.4 690.075 568.916 692.938C544.906 705.566 520.323 717.075 495.247 727.427C492.985 728.371 485.621 731.739 483.796 731.867C480.308 730.572 472.658 726.584 469.027 724.814L439.289 710.359C431.333 706.535 418.475 701.655 411.991 698.081C411.867 697.999 411.744 697.918 411.62 697.836L411.009 697.418C406.69 694.506 399.047 687.264 394.889 683.488L395.041 683.056C395.965 683.572 395.44 683.398 396.642 683.488C398.68 679.898 397.845 673.473 399.121 669.861L399.92 667.582C398.255 664.426 400.257 663.525 399.967 661.615C396.794 660.538 395.073 660.068 392.233 658.278C391.257 655.291 389.733 651.701 390.513 648.697C396.563 646.289 402.68 644.251 408.732 641.748C406.481 640.995 389.154 634.778 388.728 633.999C394.941 631.956 403.994 631.359 411.645 628.722C419.633 626.525 426.018 622.388 433.609 619.1C441.208 615.809 450.938 617.31 459.069 616.899C463.516 616.674 464.227 618.172 468.936 617.271L464.483 616.52Z"/><defs><linearGradient id="gradient_7" gradientUnits="userSpaceOnUse" x1="487.44302" y1="680.09698" x2="497.83176" y2="727.69965"><stop offset="0" stop-color="#2EBC00"/><stop offset="1" stop-color="#67F908"/></linearGradient></defs><path fill="url(#gradient_7)" d="M537.122 668.708C542.025 671.572 566.079 689.131 568.916 692.938C544.906 705.566 520.323 717.075 495.247 727.427C492.985 728.371 485.621 731.739 483.796 731.867C480.308 730.572 472.658 726.584 469.027 724.814L439.289 710.359C431.333 706.535 418.475 701.655 411.991 698.081C420.423 696.696 429.058 696.107 437.481 694.518C445.966 692.918 454.345 690.482 462.765 688.584C467.53 687.51 472.272 686.965 477.084 685.808C497.301 680.854 517.328 675.15 537.122 668.708Z"/><path fill="#4CCF02" d="M399.967 661.615C403.155 662.207 409.899 664.302 412.105 666.715C409.889 667.139 403.335 665.041 400.94 664.363C400.627 665.911 400.725 666.286 399.92 667.582C398.255 664.426 400.257 663.525 399.967 661.615Z"/><defs><linearGradient id="gradient_8" gradientUnits="userSpaceOnUse" x1="612.92535" y1="769.24823" x2="542.44519" y2="607.70721"><stop offset="0" stop-color="#026100"/><stop offset="1" stop-color="#54EF02"/></linearGradient></defs><path fill="url(#gradient_8)" d="M550.511 616.903C561.165 616.573 705.427 616.745 706.981 617.39C708.674 620.326 702.269 625.839 700.084 628.092C661.595 667.053 622.9 705.811 584.001 744.362C572.014 756.302 560.089 768.303 548.225 780.365C538.812 790.05 529.593 799.938 519.889 809.332C517.963 811.197 512.646 816.088 509.881 814.744C504.074 811.922 499.972 805.746 495.124 801.645C494.813 801.123 494.338 800.807 493.842 800.37C485.137 790.795 475.149 781.881 466.73 772.08C467.16 771.592 466.994 771.906 467.067 771.07C461.137 765.299 455.389 759.347 449.829 753.22C447.614 750.822 444.604 746.753 442.53 745.11C444.303 744.388 449.272 745.751 456.034 743.607C468.308 739.714 471.55 734.09 483.796 731.867C485.621 731.739 492.985 728.371 495.247 727.427C520.323 717.075 544.906 705.566 568.916 692.938C573.4 690.075 581.677 686.388 586.766 683.99L619.37 668.944C627.016 665.488 635.675 662.072 642.255 656.751C641.074 656.767 634.261 661.48 632.487 661.902C632.43 661.916 628.943 660.425 628.491 660.268C613.134 654.935 607.729 642.135 592.591 635.35C580.406 629.464 566.361 630.281 553.347 627.127C544.982 625.099 534.911 622.954 527.151 619.198C525.354 618.328 522.096 619.471 519.992 618.173L520.096 617.385C524.658 616.569 543.161 617.517 549.917 616.957L550.511 616.903Z"/><defs><linearGradient id="gradient_9" gradientUnits="userSpaceOnUse" x1="384.46613" y1="687.85791" x2="447.5094" y2="625.61945"><stop offset="0" stop-color="#1D9200"/><stop offset="1" stop-color="#4BDE02"/></linearGradient></defs><path fill="url(#gradient_9)" d="M361.926 665.118C361.031 664.656 350.979 654.974 350.048 653.746C345.928 648.311 314.723 620.2 314.637 616.93C318.654 614.843 447.702 616.429 464.483 616.52L468.936 617.271C464.227 618.172 463.516 616.674 459.069 616.899C450.938 617.31 441.208 615.809 433.609 619.1C426.018 622.388 419.633 626.525 411.645 628.722C403.994 631.359 394.941 631.956 388.728 633.999C389.154 634.778 406.481 640.995 408.732 641.748C402.68 644.251 396.563 646.289 390.513 648.697C389.733 651.701 391.257 655.291 392.233 658.278C395.073 660.068 396.794 660.538 399.967 661.615C400.257 663.525 398.255 664.426 399.92 667.582L399.121 669.861C397.845 673.473 398.68 679.898 396.642 683.488C395.44 683.398 395.965 683.572 395.041 683.056L394.889 683.488C399.047 687.264 406.69 694.506 411.009 697.418L411.62 697.836C411.744 697.918 411.867 697.999 411.991 698.081C418.475 701.655 431.333 706.535 439.289 710.359L469.027 724.814C472.658 726.584 480.308 730.572 483.796 731.867C471.55 734.09 468.308 739.714 456.034 743.607C449.272 745.751 444.303 744.388 442.53 745.11C438.202 743.058 421.329 722.004 417.413 721.663C409.891 714.644 402.149 706.318 394.887 698.908C387.603 691.474 379.675 683.752 372.674 676.126C369.022 672.525 365.439 668.855 361.926 665.118Z"/><path fill="#188600" d="M361.926 665.118C366.184 666.722 370.18 671.776 373.129 675.313L372.674 676.126C369.022 672.525 365.439 668.855 361.926 665.118Z"/><defs><linearGradient id="gradient_10" gradientUnits="userSpaceOnUse" x1="564.36096" y1="748.92499" x2="669.49805" y2="764.05475"><stop offset="0" stop-color="#187600"/><stop offset="1" stop-color="#44C601"/></linearGradient></defs><path fill="url(#gradient_10)" d="M658.751 701.58L659.405 702.593C665.993 703.615 673.311 701.251 680.322 700.697L681.032 700.644C675.022 707.316 668.893 715.28 663.153 722.293L636.65 754.333C631.377 760.738 626.059 767.367 620.615 773.647C616.383 778.527 601.002 784.484 597.567 788.832C596.019 790.401 557.5 812.457 553.406 814.318C555.282 810.853 555.208 813.208 555.282 808.803L557.063 806.561C560.151 804.013 565.692 798.004 568.719 794.896L591.41 771.451C614.039 748.336 636.487 725.046 658.751 701.58Z"/><path fill="#4CCF02" d="M658.751 701.58C660.939 698.967 666.11 693.98 668.643 691.367C674.589 685.218 680.502 679.037 686.382 672.825L718.853 639.101C722.516 635.268 737.482 618.476 740.99 617.035C742.919 618.875 743.764 617.377 745.669 618.991C745.6 619.224 683.446 698.739 681.032 700.644L680.322 700.697C673.311 701.251 665.993 703.615 659.405 702.593L658.751 701.58Z"/><path fill="#B6FE36" d="M636.143 707.575C637.566 704.831 644.711 698.255 647.321 695.492C667.182 674.405 687.476 653.729 708.19 633.479C712.469 629.248 728.231 610.006 730.78 608.894L731.662 609.263C733.404 614.732 722.736 623.539 718.95 626.872C701.412 642.309 686.437 660.088 669.253 675.898C663.547 681.147 658.181 688.177 652.44 693.558C648.444 697.303 644.813 702.699 640.213 705.753L640.213 704.093C638.533 704.749 637.867 706.31 636.143 707.575Z"/><path fill="#127300" d="M417.413 721.663C421.329 722.004 438.202 743.058 442.53 745.11C444.604 746.753 447.614 750.822 449.829 753.22C455.389 759.347 461.137 765.299 467.067 771.07C466.994 771.906 467.16 771.592 466.73 772.08C464.954 770.543 462.771 768.167 461.107 766.454C446.599 751.531 431.718 736.764 417.413 721.663Z"/><defs><linearGradient id="gradient_11" gradientUnits="userSpaceOnUse" x1="849.04041" y1="467.13165" x2="787.26477" y2="450.45142"><stop offset="0" stop-color="#116901"/><stop offset="1" stop-color="#1E8C00"/></linearGradient></defs><path fill="url(#gradient_11)" d="M825.341 344.961C827.99 336.348 831.258 324.596 834.527 316.495C834.471 324.556 834.295 332.616 834.001 340.672C834.58 349.979 833.615 364.342 833.461 374L832.141 449.731C831.965 471.729 831.644 493.726 831.18 515.719C831.062 523.326 831.408 539.336 830.581 546.158C830.515 565.594 830.239 585.029 829.755 604.459C829.538 615.249 829.605 627.215 829.05 637.852L796.472 618.989C794.406 617.813 785.706 612.747 784.304 612.242C774.189 605.738 761.648 600.163 751.885 592.986C749.897 591.524 749.271 590.26 749.066 587.939C751.139 580.91 753.367 573.927 755.748 566.996C756.337 563.444 759.953 552.77 761.128 549.125C764.584 538.408 767.95 527.662 771.225 516.889C772.737 511.96 775.396 504.018 776.337 499.183C779.074 492.692 782.217 481.966 784.254 475.081C785.634 469.493 791.977 449.428 794.154 444.414C798.297 427.65 806.247 408.025 810.793 390.385C811.907 388.448 813.829 381.36 814.675 378.979C818.285 368.824 821.326 354.697 825.341 344.961Z"/><defs><linearGradient id="gradient_12" gradientUnits="userSpaceOnUse" x1="830.78876" y1="588.40381" x2="750.02991" y2="590.59943"><stop offset="0" stop-color="#064C01"/><stop offset="1" stop-color="#0F6A01"/></linearGradient></defs><path fill="url(#gradient_12)" d="M830.292 539.62C830.299 541.84 830.446 543.946 830.581 546.158C830.515 565.594 830.239 585.029 829.755 604.459C829.538 615.249 829.605 627.215 829.05 637.852L796.472 618.989C794.406 617.813 785.706 612.747 784.304 612.242C774.189 605.738 761.648 600.163 751.885 592.986C749.897 591.524 749.271 590.26 749.066 587.939C751.139 580.91 753.367 573.927 755.748 566.996C756.069 569.87 753.868 575.781 752.933 578.876C757.749 576.437 770.639 570.198 775.358 567.992C786.126 562.959 821.634 540.716 830.292 539.62Z"/><path fill="#4CCF02" d="M794.154 444.414C794.094 446.01 794.097 446.706 793.753 448.304L793.864 448.302L794.113 447.409L793.764 447.783C793.932 447.203 794.368 446.775 794.776 446.233C796.643 445.699 799.349 446.537 801.147 447.442C804.256 449.007 803.877 447.12 805.774 444.265C809.414 438.784 813.233 425.726 818.863 422.448C809.641 434.062 802.933 453.428 793.89 466.196C792.564 468.069 786.014 477.321 785.473 478.473L784.923 478.491C784.781 477.045 784.886 476.308 784.254 475.081C785.634 469.493 791.977 449.428 794.154 444.414Z"/><path fill="#0A5301" d="M825.341 344.961C827.99 336.348 831.258 324.596 834.527 316.495C834.471 324.556 834.295 332.616 834.001 340.672C832.956 336.34 832.94 328.326 832.836 323.578C831.035 331.034 828.804 337.601 826.211 344.787C825.482 345.049 825.775 345.091 825.341 344.961Z"/><path fill="#36AD00" d="M790.395 504.249C791.392 503.381 791.307 503.354 792.572 503.05C795.387 504.558 795.663 508.658 794.161 511.269C792.923 513.719 791.13 514.133 788.833 512.925C787.01 510.472 787.068 507.706 789.264 505.461L790.395 504.249Z"/><path fill="#188600" d="M794.161 511.269C792.923 513.719 791.13 514.133 788.833 512.925C787.01 510.472 787.068 507.706 789.264 505.461C788.945 507.654 788.604 507.626 789.278 509.416L790.849 510.53L794.161 511.269Z"/><path fill="#36AD00" d="M790.395 504.249C792.293 505.456 792.122 507.137 791.839 509.165L790.849 510.53L789.278 509.416C788.604 507.626 788.945 507.654 789.264 505.461L790.395 504.249Z"/><defs><linearGradient id="gradient_13" gradientUnits="userSpaceOnUse" x1="383.27875" y1="181.92403" x2="432.66257" y2="249.56621"><stop offset="0" stop-color="#036800"/><stop offset="1" stop-color="#33D400"/></linearGradient></defs><path fill="url(#gradient_13)" d="M501.062 127.642L500.994 135.592C501.006 150.196 500.943 164.8 500.805 179.404C500.749 186.448 500.911 195.154 500.557 202.085C495.494 204.17 486.387 206.095 480.764 207.465L439.582 217.18C400.094 227.012 360.715 237.279 321.453 247.98C307.254 250.681 293.108 256.011 279.623 259.166C275.121 260.564 270.976 261.831 266.394 263.002C272.987 259.602 279.535 256.114 286.035 252.54C296.399 245.609 312.257 237.144 323.431 230.629L400.077 185.892L466.937 146.998C475.222 142.184 493.261 130.935 501.062 127.642Z"/><path fill="#0A5301" d="M286.035 252.54L286.118 253.259C284.859 254.353 280.41 258.693 279.623 259.166C275.121 260.564 270.976 261.831 266.394 263.002C272.987 259.602 279.535 256.114 286.035 252.54Z"/><defs><linearGradient id="gradient_14" gradientUnits="userSpaceOnUse" x1="743.45355" y1="483.9827" x2="633.92126" y2="394.91553"><stop offset="0" stop-color="#28AD00"/><stop offset="1" stop-color="#73FF04"/></linearGradient></defs><path fill="url(#gradient_14)" d="M680.833 387.33L680.806 386.676C679.983 369.738 665.389 378.162 661.356 364.836C660.322 361.422 667.158 358.634 667.852 356.452C666.883 354.575 663.981 352.784 663.991 351.804C668.539 354.826 673.985 360.744 678.051 364.653C694.171 380.152 710.263 395.506 726.805 410.568C727.025 410.745 727.212 410.976 727.466 411.101C727.698 411.215 727.986 411.162 728.223 411.265C730.517 412.256 766.767 442.986 768.696 445.545C763.339 461.188 726.444 510.625 709.914 523.299C709.436 523.665 708.764 523.328 708.211 523.615C704.52 517.796 700.9 511.491 697.473 505.485C673.194 462.933 647.17 421.106 622.809 378.641L623.4 378.567C628.993 384.756 643.01 415.474 649.26 418.169C649.153 418.208 651.776 417.287 651.473 417.312C656.873 416.864 665.454 420.357 669.82 423.125C672.099 424.57 670.867 428.711 675.648 430.246C677.201 429.549 678.578 429.657 679.611 428.541C681.027 427.011 684.23 425.49 686.068 424.471L686.014 423.96L685.173 423.824C681.858 423.271 678.035 422.662 677.639 418.639C678.522 415.899 679.393 416.903 679.941 413.319C683.144 409.097 693.198 410.297 696.802 406.716C696.852 406.666 697.851 405.937 697.899 405.902C696.156 396.35 686.594 393.444 680.833 387.33Z"/><defs><linearGradient id="gradient_15" gradientUnits="userSpaceOnUse" x1="634.10638" y1="187.04214" x2="594.91699" y2="247.84943"><stop offset="0" stop-color="#097800"/><stop offset="1" stop-color="#4AED00"/></linearGradient></defs><path fill="url(#gradient_15)" d="M522.402 127.556C529.873 131.418 537.483 136.204 544.819 140.461L593.133 168.531C606.502 176.082 619.798 183.761 633.019 191.568C637.07 193.911 648.794 200.241 652.066 202.669C659.514 206.759 670.869 213.287 677.978 217.908C691.16 225.35 706.919 234.146 719.565 242.207C725.642 245.298 732.612 249.706 738.704 253.082C742.434 255.149 751.954 260.082 754.674 262.236C745.766 259.804 735.701 256.529 726.882 253.761C718.007 252.025 705.489 247.958 695.86 245.812C680.83 241.225 661.731 236.745 646.286 232.809C623.139 226.752 599.938 220.902 576.687 215.259C567.023 212.927 557.341 210.675 547.641 208.502C542.061 207.26 526.129 204.268 521.736 201.809C520.712 198.118 522.036 161.217 522.091 153.723C522.719 146.923 522.405 134.704 522.402 127.556Z"/><defs><linearGradient id="gradient_16" gradientUnits="userSpaceOnUse" x1="699.65063" y1="231.24106" x2="697.90784" y2="234.23721"><stop offset="0" stop-color="#096301"/><stop offset="1" stop-color="#0D7E00"/></linearGradient></defs><path fill="url(#gradient_16)" d="M677.978 217.908C691.16 225.35 706.919 234.146 719.565 242.207C718.272 242.009 717.337 241.645 716.093 241.25C714.593 240.457 706.539 236.445 706.062 236.445C696.674 236.448 692.664 231.369 686.991 224.761C685.817 223.395 679.4 219.86 677.1 218.547L677.978 217.908Z"/><path fill="#0A5301" d="M716.093 241.25C717.337 241.645 718.272 242.009 719.565 242.207C725.642 245.298 732.612 249.706 738.704 253.082C742.434 255.149 751.954 260.082 754.674 262.236C745.766 259.804 735.701 256.529 726.882 253.761C729.952 252.73 737.217 255.769 742.092 256.505C738.643 254.008 716.862 242.476 716.093 241.25Z"/><path fill="#127300" d="M652.066 202.669C659.514 206.759 670.869 213.287 677.978 217.908L677.1 218.547C674.334 217.907 652.937 204.881 652.066 202.669Z"/><path fill="#CFFE5E" d="M500.994 135.592C503.905 136.552 517.928 136.787 521.786 136.762C521.847 142.287 521.8 148.237 522.091 153.723C522.036 161.217 520.712 198.118 521.736 201.809C526.129 204.268 542.061 207.26 547.641 208.502C557.341 210.675 567.023 212.927 576.687 215.259C599.938 220.902 623.139 226.752 646.286 232.809C661.731 236.745 680.83 241.225 695.86 245.812C698.361 247.966 720.931 253.058 726.005 254.424C718.718 255.155 721.363 258.19 717.8 259.769L717.2 259.576C714.113 258.605 694.174 253.36 692.372 253.844C690.718 254.308 650.849 243.017 645.159 241.56C621.87 235.558 598.49 229.918 575.025 224.645C563.345 221.924 535.547 215.282 523.785 214.948C521.372 218.551 519.719 219.677 520.319 223.494C518.284 224.49 513.115 223.221 511.969 223.669C509.001 224.827 500.924 229.258 497.675 228.549C498.346 226.744 500.245 227.362 498.567 223.444C496.456 218.517 490.038 214.847 484.893 215.952C471.213 218.888 457.787 222.665 444.244 226.024L359.602 247.343C355.496 248.399 332.028 255.449 329.398 255.284C324.035 258.092 305.763 260.133 302.795 263.495C302.82 265.986 303.514 269.497 302.475 271.223C318.869 267.457 335.463 262.453 351.823 258.424C353.085 258.113 352.954 258.033 354.384 258.032L354.787 258.628C352.651 259.709 330.689 265.048 326.969 265.988C314.795 269.116 302.603 272.174 290.394 275.162C285.551 276.377 279.708 278.13 275.018 279.118L274.891 278.579C277.984 277.802 280.934 277.424 282.847 274.84C283.006 273.684 283.163 272.732 283.387 271.588C284.91 269.953 285.33 269.806 285.5 267.703L284.971 267.136C282.278 267.401 280.263 267.46 277.592 267.5C282.43 266.663 287.716 265.692 292.367 264.145C305.406 259.809 318.785 256.005 332.213 252.986C327.304 248.802 327.391 249.94 322.026 248.927L321.453 247.98C360.715 237.279 400.094 227.012 439.582 217.18L480.764 207.465C486.387 206.095 495.494 204.17 500.557 202.085C500.911 195.154 500.749 186.448 500.805 179.404C500.943 164.8 501.006 150.196 500.994 135.592Z"/><path fill="#B6FE36" d="M332.213 252.986C338.86 251.966 376.86 240.187 379.762 241.409C376.442 242.471 370.594 243.556 366.856 244.496C358.235 246.685 349.645 248.993 341.087 251.417C337.937 252.297 331.953 253.716 329.398 255.284C324.035 258.092 305.763 260.133 302.795 263.495C302.82 265.986 303.514 269.497 302.475 271.223C318.869 267.457 335.463 262.453 351.823 258.424C353.085 258.113 352.954 258.033 354.384 258.032L354.787 258.628C352.651 259.709 330.689 265.048 326.969 265.988C314.795 269.116 302.603 272.174 290.394 275.162C285.551 276.377 279.708 278.13 275.018 279.118L274.891 278.579C277.984 277.802 280.934 277.424 282.847 274.84C283.006 273.684 283.163 272.732 283.387 271.588C284.91 269.953 285.33 269.806 285.5 267.703L284.971 267.136C282.278 267.401 280.263 267.46 277.592 267.5C282.43 266.663 287.716 265.692 292.367 264.145C305.406 259.809 318.785 256.005 332.213 252.986Z"/><defs><linearGradient id="gradient_17" gradientUnits="userSpaceOnUse" x1="795.35938" y1="390.22684" x2="737.99994" y2="425.24277"><stop offset="0" stop-color="#2FAE00"/><stop offset="1" stop-color="#4CDA01"/></linearGradient></defs><path fill="url(#gradient_17)" d="M768.366 361.804C772.679 365.506 791.236 385.425 794.262 386.641L795.217 385.715L796.268 385.871C790.589 403.247 784.374 420.573 778.443 437.875C777.756 439.88 776.607 443.25 775.66 445.042L775.013 444.912C774.063 447.181 774.466 447.294 772.786 448.335C770.716 447.923 770.459 447.221 768.696 445.545C766.767 442.986 730.517 412.256 728.223 411.265C727.986 411.162 727.698 411.215 727.466 411.101C727.212 410.976 727.025 410.745 726.805 410.568L727.933 410.583C729.923 409.12 731.897 406.375 733.511 404.457C745.323 390.418 756.414 375.719 768.366 361.804Z"/><path fill="#188600" d="M768.696 445.545C770.459 447.221 770.716 447.923 772.786 448.335C774.466 447.294 774.063 447.181 775.013 444.912L775.66 445.042C773.668 451.93 770.764 458.707 768.898 465.187C762.295 482.163 755.957 502.721 749.837 520.162C745.182 533.426 737.441 554.553 734.418 567.52C728.75 560.44 723.301 550.032 718.692 541.987C715.571 536.537 710.896 529.083 708.211 523.615C708.764 523.328 709.436 523.665 709.914 523.299C726.444 510.625 763.339 461.188 768.696 445.545Z"/><path fill="#B6FE36" d="M797.881 381.622L798.31 382.361C793.772 396.115 791.929 398.134 801.585 410.503L802.43 410.597C805.074 407.477 809.595 393.595 810.025 389.65C810.717 390.192 810.504 389.909 810.793 390.385C806.247 408.025 798.297 427.65 794.154 444.414C791.977 449.428 785.634 469.493 784.254 475.081C782.217 481.966 779.074 492.692 776.337 499.183C775.544 492.504 794.47 445.385 793.452 441.028L791.327 441.553C784.049 438.043 788.218 419.092 786.688 416.991C784.814 420.829 784.15 427.09 782.287 430.297C778.269 437.214 773.637 460.379 768.898 465.187C770.764 458.707 773.668 451.93 775.66 445.042C776.607 443.25 777.756 439.88 778.443 437.875C784.374 420.573 790.589 403.247 796.268 385.871C796.687 385.073 797.527 382.596 797.881 381.622Z"/><path fill="#B6FE36" d="M703.011 256.819C707.736 256.753 754.726 270.385 762.658 273.146C761.181 272.976 759.979 272.802 758.513 272.554C758.239 274.832 763.067 280.665 764.64 282.795C767.782 283.98 773.706 284.495 775.638 285.65L775.479 286.231C772.593 285.482 770.171 284.944 767.249 284.369C763.899 282.949 752.028 280.252 747.996 279.118C733.132 274.936 717.185 271.488 702.447 266.903C706.559 265.79 739.53 276.796 745.884 277.631L746.284 276.634C745.898 274.317 743.788 272.883 742.818 270.701C740.889 266.365 733.071 265.805 729.044 264.762C722.674 263.074 716.314 261.349 709.965 259.586C707.781 258.98 704.561 258.437 703.011 256.819Z"/><defs><linearGradient id="gradient_18" gradientUnits="userSpaceOnUse" x1="510.47617" y1="609.79767" x2="541.04742" y2="238.43239"><stop offset="0" stop-color="#198D00"/><stop offset="1" stop-color="#44D700"/></linearGradient></defs><path fill="url(#gradient_18)" d="M304.904 588.89C306.811 582.237 327.853 548.519 332.635 540.524L390.608 442.875C429.044 377.477 465.859 310.832 503.399 244.904C504.961 242.161 508.511 235.967 511.59 235.16C514.08 236.25 514.903 237.603 516.316 239.94C525.648 255.388 534.571 271.2 543.541 286.863L592.969 372.961C612.18 405.327 631.174 437.82 649.951 470.439C656.261 481.329 663.861 493.123 669.735 504.051C678.831 518.088 688.704 536.216 697.419 550.791L711.355 573.882C713.875 578.048 716.433 582.144 718.787 586.41C720.9 590.24 718.076 592.65 715.181 594.853C695.973 595.406 675.588 595.144 656.3 595.06C652.352 595.627 630.647 595.182 625.605 595.156L560.308 594.974L377.672 594.889L331.28 594.68C324.728 594.658 316.952 594.818 310.428 594.277C308.533 594.119 306.039 590.494 304.904 588.89Z"/><path fill="#0A5301" d="M669.735 504.051C678.831 518.088 688.704 536.216 697.419 550.791L711.355 573.882C713.875 578.048 716.433 582.144 718.787 586.41C720.9 590.24 718.076 592.65 715.181 594.853C695.973 595.406 675.588 595.144 656.3 595.06C664.009 592.326 673.01 595.12 677.612 593.579C678.568 591.673 678.649 588.446 676.706 587.193C673.953 588.149 671.095 590.223 668.588 591.837C668.888 591.428 669.196 591.024 669.51 590.625C677.585 580.43 701.263 583.39 711.634 590.178C712.705 590.879 712.587 591.803 712.591 592.929L712.064 593.296C711.168 592.21 710.893 591.421 709.834 591.22C709.096 592.985 709.178 592.102 709.559 593.96C712.539 595.57 717.055 592.129 718.468 589.764C718.634 586.043 706.792 568.85 704.171 564.533C696.166 551.289 688.317 537.952 680.628 524.522C677.491 519.133 671.917 510.211 669.355 504.793L669.735 504.051Z"/><path fill="#FAFEB6" d="M558.743 412.165C591.389 407.507 613.111 434.833 617.004 464.598C621.529 499.181 615.288 543.651 573.832 549.842C562.603 551.606 547.842 548.484 538.696 541.609C509.292 519.507 507.178 457.968 528.021 430.34C535.385 420.379 546.467 413.823 558.743 412.165Z"/><path fill="#36AD00" d="M565.569 437.135C583.57 436.72 588.708 456.374 589.569 470.855C590.408 484.945 590.442 503.067 582.539 515.354C579.051 520.778 575.271 521.903 569.303 522.974C554.288 522.967 547.977 514.854 545.672 500.519C542.972 483.728 542.207 459.999 551.113 444.901C553.92 440.143 560.398 437.986 565.569 437.135Z"/><path fill="#FAFEB6" d="M451.875 412.198C464.42 410.1 482.974 414.373 492.217 423.561C500.598 431.892 503.784 441.5 504.011 453.122C504.806 493.979 459.407 498.832 437.294 520.987C459.276 521.382 482.134 520.98 504.227 521.077C504.288 529.731 504.261 538.386 504.147 547.04L434.25 547.024L406.632 547.003C406.253 539.183 406.516 530.629 407.718 523.044C412.274 494.282 442.901 485.632 463.86 471.642C469.255 468.041 474.634 462.645 475.667 455.778C476.346 451.431 475.188 446.997 472.471 443.537C466.427 435.993 453.147 435.501 446.101 441.797C439.984 447.263 439.306 455.454 438.959 463.035L409.774 463.076C408.669 435.724 424.37 415.373 451.875 412.198Z"/><path fill="#36AD00" d="M653.222 520.26C656.434 520.021 659.381 519.471 660.457 523.306C660.059 525.366 659.977 525.408 658.365 526.872C655.364 527.089 652.125 527.75 650.993 524.402C651.301 522.427 651.947 521.913 653.222 520.26Z"/><path fill="#36AD00" d="M377.715 524.473C380.481 524.383 382.882 524.212 383.068 527.547C382.209 529.66 381.329 530.064 379.461 531.549C377.187 532.519 377.587 532.425 375.642 531.945C373.426 529.097 375.89 526.637 377.715 524.473Z"/><path fill="#4CCF02" d="M510.768 284.632L513.281 284.785C514.556 285.882 514.108 285.212 514.562 286.934C513.797 289.791 512.859 290.532 510.367 292.115C508.657 291.676 508.272 291.703 507.053 290.394C506.327 287.128 508.058 286.01 510.768 284.632Z"/><defs><linearGradient id="gradient_19" gradientUnits="userSpaceOnUse" x1="801.24518" y1="277.62552" x2="568.98529" y2="340.15799"><stop offset="0" stop-color="#47D200"/><stop offset="1" stop-color="#AAFF15" stop-opacity="0.98823529"/></linearGradient></defs><path fill="url(#gradient_19)" d="M622.809 378.641C617.664 372.276 539.476 236.278 539.021 231.524C538.894 230.197 539.401 229.525 540.181 228.524C544.439 228.077 567.502 233.87 573.376 235.24C603.253 242.151 633.048 249.415 662.753 257.032C675.633 260.254 689.778 263.28 702.447 266.903C717.185 271.488 733.132 274.936 747.996 279.118C752.028 280.252 763.899 282.949 767.249 284.369C769.1 286.286 787.804 290.121 791.375 291.969C795.071 293.882 798.976 297.904 802.832 300.024C806.709 302.155 810.539 310.852 811.278 315.217C811.911 319.767 813.756 329.071 813.114 333.457C812.596 336.995 806.341 347.8 807.694 351.523C805.173 361.489 800.671 371.754 797.881 381.622C797.527 382.596 796.687 385.073 796.268 385.871L795.217 385.715L794.262 386.641C791.236 385.425 772.679 365.506 768.366 361.804C756.414 375.719 745.323 390.418 733.511 404.457C731.897 406.375 729.923 409.12 727.933 410.583L726.805 410.568C710.263 395.506 694.171 380.152 678.051 364.653C673.985 360.744 668.539 354.826 663.991 351.804C663.981 352.784 666.883 354.575 667.852 356.452C667.158 358.634 660.322 361.422 661.356 364.836C665.389 378.162 679.983 369.738 680.806 386.676L680.833 387.33C686.594 393.444 696.156 396.35 697.899 405.902C697.851 405.937 696.852 406.666 696.802 406.716C693.198 410.297 683.144 409.097 679.941 413.319C679.393 416.903 678.522 415.899 677.639 418.639C678.035 422.662 681.858 423.271 685.173 423.824L686.014 423.96L686.068 424.471C684.23 425.49 681.027 427.011 679.611 428.541C678.578 429.657 677.201 429.549 675.648 430.246C670.867 428.711 672.099 424.57 669.82 423.125C665.454 420.357 656.873 416.864 651.473 417.312C651.776 417.287 649.153 418.208 649.26 418.169C643.01 415.474 628.993 384.756 623.4 378.567L622.809 378.641Z"/><path fill="#B6FE36" d="M605.027 308.774C606.492 309.109 608.265 310.394 610.165 310.946C620.397 313.917 623.403 320.889 627.752 329.624L627.456 330.531C625.572 336.281 624.771 339.124 618.783 342.146C618.382 341.883 614.19 341.106 612.996 340.644C608.71 338.984 603.26 329.446 601.159 325.549C599.586 321.75 596.963 314.974 598.278 311.042C598.844 309.352 602.721 309.807 605.027 308.774Z"/><defs><linearGradient id="gradient_20" gradientUnits="userSpaceOnUse" x1="283.61523" y1="228.49484" x2="417.55219" y2="373.08911"><stop offset="0" stop-color="#32BE00"/><stop offset="1" stop-color="#A0FF11" stop-opacity="0.98823529"/></linearGradient></defs><path fill="url(#gradient_20)" d="M354.787 258.628L441.473 237.796C448.622 236.149 474.682 228.662 483.206 230.418C483.882 230.558 483.839 231.839 483.884 232.25C481.312 243.433 463.591 269.368 460.273 278.491C445.695 304.337 430.949 330.088 416.037 355.743C410.928 364.673 399.241 386.511 393.76 393.524C390.733 394.452 391.901 398.9 387.761 399.964C380.383 395.872 347.266 359.476 338.125 350.35C334.426 353.577 328.665 360.254 325.011 364.1C317.038 372.508 308.93 380.788 300.691 388.936C295.692 393.907 290.915 399.159 284.846 402.744C281.448 397.991 276.558 388.202 272.087 384.893C271.611 383.543 265.123 375.837 263.835 374.03C259.227 367.564 254.339 361.537 250.622 354.446C245.052 361.508 232.96 373.53 226.031 378.815C223.373 373.449 216.811 351.392 214.314 349.605C213.217 347.736 212.606 345.756 212.268 343.635C212.786 339.945 203.013 318.276 202.028 311.604C204.54 307.553 205.231 304.643 206.877 300.352C207.268 299.331 209.53 298.612 210.675 298.163L211.387 297.889L211.357 297.317C213.49 296.279 220.975 293.955 223.562 293.163C234.838 289.712 246.509 286.905 257.904 283.865C262.662 282.596 270.57 280.85 275.018 279.118C279.708 278.13 285.551 276.377 290.394 275.162C302.603 272.174 314.795 269.116 326.969 265.988C330.689 265.048 352.651 259.709 354.787 258.628Z"/><path fill="#8FFD16" fill-opacity="0.98823529" d="M183.629 652.102C184.36 606.272 183.307 557.375 182.694 511.499L181.852 422.665L180.901 350.066C180.755 339.276 180.528 328.769 180.932 317.987C181.125 312.843 180.678 308.031 181.23 302.769C186.01 297.364 230.063 272.331 238.815 267.185C306.115 227.688 373.75 188.765 441.714 150.422C461.088 139.401 480.229 127.928 499.797 117.241C503.699 115.11 507.711 112.611 511.846 111.014C593.467 156.275 674.582 202.439 755.179 249.498L808.904 280.908C818.791 286.722 831.45 293.883 840.566 301.065C841.762 302.008 841.812 303.121 841.859 304.724C842.306 319.994 842.093 335.437 842.051 350.687C842.139 376.744 842.027 402.802 841.717 428.858L839.42 650L838.94 650.198C823.673 641.849 805.789 631.546 790.555 623.844C786.118 620.424 778.797 617.441 774.281 613.74C773.379 610.99 768.702 610.917 766.801 609.219C765.837 608.358 765.583 608.368 764.319 607.852C765.332 607.209 770.701 605.225 771.716 605.856C775.65 608.299 779.059 610.577 783.243 612.651L784.304 612.242C785.706 612.747 794.406 617.813 796.472 618.989L829.05 637.852C829.605 627.215 829.538 615.249 829.755 604.459C830.239 585.029 830.515 565.594 830.581 546.158C831.408 539.336 831.062 523.326 831.18 515.719C831.644 493.726 831.965 471.729 832.141 449.731L833.461 374C833.615 364.342 834.58 349.979 834.001 340.672C834.295 332.616 834.471 324.556 834.527 316.495C831.258 324.596 827.99 336.348 825.341 344.961C821.326 354.697 818.285 368.824 814.675 378.979C813.829 381.36 811.907 388.448 810.793 390.385C810.504 389.909 810.717 390.192 810.025 389.65C809.595 393.595 805.074 407.477 802.43 410.597L801.585 410.503C791.929 398.134 793.772 396.115 798.31 382.361L797.881 381.622C800.671 371.754 805.173 361.489 807.694 351.523C810.032 344.745 823.475 306.706 823.161 302.101C818.327 297.442 784.885 290.076 776.315 286.58L775.479 286.231L775.638 285.65C773.706 284.495 767.782 283.98 764.64 282.795C763.067 280.665 758.239 274.832 758.513 272.554C759.979 272.802 761.181 272.976 762.658 273.146C754.726 270.385 707.736 256.753 703.011 256.819C699.822 256.095 695.598 254.762 692.372 253.844C694.174 253.36 714.113 258.605 717.2 259.576L717.8 259.769C721.363 258.19 718.718 255.155 726.005 254.424C720.931 253.058 698.361 247.966 695.86 245.812C705.489 247.958 718.007 252.025 726.882 253.761C735.701 256.529 745.766 259.804 754.674 262.236C751.954 260.082 742.434 255.149 738.704 253.082C732.612 249.706 725.642 245.298 719.565 242.207C706.919 234.146 691.16 225.35 677.978 217.908C670.869 213.287 659.514 206.759 652.066 202.669C648.794 200.241 637.07 193.911 633.019 191.568C619.798 183.761 606.502 176.082 593.133 168.531L544.819 140.461C537.483 136.204 529.873 131.418 522.402 127.556C522.405 134.704 522.719 146.923 522.091 153.723C521.8 148.237 521.847 142.287 521.786 136.762C517.928 136.787 503.905 136.552 500.994 135.592L501.062 127.642C493.261 130.935 475.222 142.184 466.937 146.998L400.077 185.892L323.431 230.629C312.257 237.144 296.399 245.609 286.035 252.54C279.535 256.114 272.987 259.602 266.394 263.002C270.976 261.831 275.121 260.564 279.623 259.166C293.108 256.011 307.254 250.681 321.453 247.98L322.026 248.927C327.391 249.94 327.304 248.802 332.213 252.986C318.785 256.005 305.406 259.809 292.367 264.145C287.716 265.692 282.43 266.663 277.592 267.5C280.263 267.46 282.278 267.401 284.971 267.136L285.5 267.703C285.33 269.806 284.91 269.953 283.387 271.588C283.163 272.732 283.006 273.684 282.847 274.84C280.934 277.424 277.984 277.802 274.891 278.579L275.018 279.118C270.57 280.85 262.662 282.596 257.904 283.865C246.509 286.905 234.838 289.712 223.562 293.163C220.975 293.955 213.49 296.279 211.357 297.317C206.998 298.469 200.742 299.71 197.868 303.209C197.609 304.668 210.772 341.44 212.268 343.635C212.606 345.756 213.217 347.736 214.314 349.605C216.895 356.953 220.883 366.939 222.832 374.117C220.527 372.312 219.992 366.975 218.299 364.371L218.024 367.087C214.944 369.513 214.123 370.345 210.242 369.675L209.061 371.306C207.814 370.889 207.543 370.11 206.54 368.894C207.725 370.522 208.21 372.849 208.517 374.825C209.044 378.222 210.85 378.692 210.137 382.25C207.744 376.496 206.038 370.004 203.95 364.096C198.261 347.997 193.432 329.737 187.052 314.053C188.875 341.615 189.362 372.846 189.687 400.632C190.477 425.573 190.613 450.329 191.324 475.244C191.505 481.612 191.206 493.566 191.944 499.078C191.945 510.456 192.141 521.832 192.533 533.203C192.524 554.659 193.607 576.503 193.613 597.96C193.615 604.248 194.473 616.257 193.962 621.71C192.981 625.915 193.585 630.987 193.551 635.325C193.524 638.84 194.524 644.563 190.852 646.629C188.621 647.921 186.819 648.17 185.487 650.521L183.629 652.102Z"/><path fill="#5DE706" d="M756.389 263.221C760.086 263.038 765.851 268.2 769.392 269.963C771.053 270.79 772.481 271.305 774.148 272.174C772.862 272.395 772.286 272.142 771.001 271.854L770.634 272.178C771.262 272.747 771.505 272.982 772.193 273.48L770.575 273.696L764.545 272.748C766.502 271.791 767.567 273.529 769.374 272.688C768.06 271.097 765.412 270.44 763.503 269.065C760.934 267.214 758.878 265.217 756.389 263.221Z"/><path fill="#4CCF02" d="M258.665 268.712L259.382 268.987C258.154 270.173 242.075 275.146 240.015 275.35L239.299 275.217C240.748 273.388 255.185 269.161 258.665 268.712Z"/><defs><linearGradient id="gradient_21" gradientUnits="userSpaceOnUse" x1="223.53905" y1="386.04996" x2="281.7757" y2="409.73901"><stop offset="0" stop-color="#239C00"/><stop offset="1" stop-color="#41D000"/></linearGradient></defs><path fill="url(#gradient_21)" d="M214.314 349.605C216.811 351.392 223.373 373.449 226.031 378.815C232.96 373.53 245.052 361.508 250.622 354.446C254.339 361.537 259.227 367.564 263.835 374.03C265.123 375.837 271.611 383.543 272.087 384.893C273.269 389.418 281.746 398.985 284.596 403.357C284.895 403.815 286.136 403.317 286.682 403.194C286.152 404.223 286.092 404.188 285.345 405.103C285.23 408.141 286.644 407.578 287.305 410.623L286.977 410.265C285.418 408.53 285.021 407.803 283.86 405.775C279.78 406.127 268.556 418.693 264.854 421.5C264.249 421.959 264.267 422.844 264.233 423.491L263.262 423.124C260.319 424.301 248.903 434.871 246.86 437.666L236.588 409.032L235.704 409.065C231.16 399.328 227.013 384.578 222.832 374.117C220.883 366.939 216.895 356.953 214.314 349.605Z"/><path fill="#B6FE36" d="M736.522 598.941C735.993 598.3 735.491 597.637 735.017 596.954C732 592.566 733.858 590.018 734.198 585.29C734.448 581.808 734.69 578.79 735.307 575.331L735.737 577.608C740.57 581.259 744.351 592.043 749.423 592.017C748.253 590.389 747.66 589.472 749.066 587.939C749.271 590.26 749.897 591.524 751.885 592.986C761.648 600.163 774.189 605.738 784.304 612.242L783.243 612.651C779.059 610.577 775.65 608.299 771.716 605.856C770.701 605.225 765.332 607.209 764.319 607.852C765.583 608.368 765.837 608.358 766.801 609.219C768.702 610.917 773.379 610.99 774.281 613.74C778.797 617.441 786.118 620.424 790.555 623.844C786.772 623.065 781.527 619.21 777.812 617.185L776.709 620.484C779.524 621.87 787.046 625.172 788.487 627.351C785.618 626.413 779.485 622.719 776.086 621.154L775.744 621.504C772.563 620.583 766.937 615.617 763.634 613.539L763.252 613.303C762.105 612.4 756.796 609.808 755.173 608.968C749.27 605.911 742.9 600.398 736.522 598.941Z"/><path fill="#5DE706" d="M776.086 621.154C773.259 619.48 766.313 614.599 764.056 612.233C766.481 612.036 771.056 618.564 774.948 618.581C775.812 617.298 775.545 618.018 775.366 616.248C773.552 613.489 770.811 612.386 767.899 610.968C770.717 611.59 771.82 612.351 774.281 613.74C778.797 617.441 786.118 620.424 790.555 623.844C786.772 623.065 781.527 619.21 777.812 617.185L776.709 620.484C779.524 621.87 787.046 625.172 788.487 627.351C785.618 626.413 779.485 622.719 776.086 621.154Z"/><defs><linearGradient id="gradient_22" gradientUnits="userSpaceOnUse" x1="232.09492" y1="645.33887" x2="206.29565" y2="624.67004"><stop offset="0" stop-color="#6FE70D" stop-opacity="0.98823529"/><stop offset="1" stop-color="#41AE00"/></linearGradient></defs><path fill="url(#gradient_22)" d="M185.487 650.521C188.503 649.258 192.092 646.784 195.101 645.258C209.67 637.836 223.117 628.627 238.18 622.186C244.207 619.609 248.902 615.095 256.096 615.743L255.667 616.823C247.456 621.502 238.875 625.872 230.865 630.839C223.577 635.358 216.679 640.552 209.332 644.877C205.345 647.224 200.005 653.127 195.034 654.62C193.296 655.141 191.612 657.619 190.667 659.147L190.595 660.135C194.613 663.796 225.736 679.802 226.516 682.728C223.603 681.613 186.767 659.321 184.854 657.374C183.25 655.741 183.508 654.209 183.629 652.102L185.487 650.521Z"/><path fill="#36AD00" d="M767.249 284.369C770.171 284.944 772.593 285.482 775.479 286.231L776.315 286.58C784.885 290.076 818.327 297.442 823.161 302.101C823.475 306.706 810.032 344.745 807.694 351.523C806.341 347.8 812.596 336.995 813.114 333.457C813.756 329.071 811.911 319.767 811.278 315.217C810.539 310.852 806.709 302.155 802.832 300.024C798.976 297.904 795.071 293.882 791.375 291.969C787.804 290.121 769.1 286.286 767.249 284.369Z"/><path fill="#36AD00" d="M212.268 343.635C210.772 341.44 197.609 304.668 197.868 303.209C200.742 299.71 206.998 298.469 211.357 297.317L211.387 297.889L210.675 298.163C209.53 298.612 207.268 299.331 206.877 300.352C205.231 304.643 204.54 307.553 202.028 311.604C203.013 318.276 212.786 339.945 212.268 343.635Z"/><defs><linearGradient id="gradient_23" gradientUnits="userSpaceOnUse" x1="334.36032" y1="782.09949" x2="337.45081" y2="777.03046"><stop offset="0" stop-color="#4AB001" stop-opacity="0.25490198"/><stop offset="1" stop-color="#4AB300" stop-opacity="0.30588236"/></linearGradient></defs><path fill="url(#gradient_23)" d="M169.457 676.01C178.015 680.668 187.803 686.869 196.272 691.955L235.787 715.521L376.534 800.463C409.002 819.813 441.364 839.339 473.62 859.04L494.779 871.879C496.698 873.038 502.802 876.524 504.117 877.757C503.802 878.228 503.71 879.852 503.626 880.541C498.583 881.674 485.352 874.449 479.286 872.588L478.635 872.392C475.466 869.96 467.766 865.738 463.999 863.517L437.3 847.531C426.384 840.947 416.223 833.812 405.627 827.305C392.73 819.385 379.102 811.809 366.246 803.687C361.763 800.676 354.75 798.435 350.479 795.455C340.907 788.777 331.108 782.9 321.124 776.883L224.966 718.837C209.788 709.601 193.932 701.138 179.385 690.893C175.523 688.172 165.209 683.041 165.85 677.903C166.957 676.46 167.68 676.474 169.457 676.01Z"/><path fill="#36AD00" fill-opacity="0.27843139" d="M755.827 734.743C755.979 735.25 756.131 735.758 756.283 736.265C759.521 737.863 764.394 733.554 767.933 732.937C769.838 732.605 771.592 732.714 773.5 732.776C765.796 738.278 756.243 743.283 748.052 748.096C726.198 760.938 704.153 773.888 682.529 787.108L572.304 854.031C562.138 860.137 527.666 882.775 517.189 884.112C533.777 877.233 552.675 863.44 568.757 854.095C604.212 833.494 637.97 809.517 673.547 789.051C675.143 788.133 679.795 784.42 680.604 782.954L677.82 781.867C697.743 768.93 719.292 757.735 739.246 744.72C744.353 741.389 750.506 737.602 755.827 734.743Z"/><defs><linearGradient id="gradient_24" gradientUnits="userSpaceOnUse" x1="587.80676" y1="826.01312" x2="595.54761" y2="838.25647"><stop offset="0" stop-color="#49B000" stop-opacity="0.17254902"/><stop offset="1" stop-color="#50B901" stop-opacity="0.3137255"/></linearGradient></defs><path fill="url(#gradient_24)" d="M504.117 877.757C507.93 879.573 512.508 880.792 516.53 878.844C523.279 875.575 529.625 871.546 536.029 867.661L569.612 847.158L677.82 781.867L680.604 782.954C679.795 784.42 675.143 788.133 673.547 789.051C637.97 809.517 604.212 833.494 568.757 854.095C552.675 863.44 533.777 877.233 517.189 884.112C503.573 887.885 495.578 881.63 483.307 876.839C481.245 876.034 478.015 875.445 476.462 873.992L476.624 873.444L478.635 872.392L479.286 872.588C485.352 874.449 498.583 881.674 503.626 880.541C503.71 879.852 503.802 878.228 504.117 877.757Z"/><path fill="#36AD00" fill-opacity="0.29411766" d="M755.827 734.743C758.109 732.924 770.406 725.836 773.474 723.999L813.861 700.052C814.886 701.261 814.894 701.524 814.98 703.135C813.884 704.736 813.119 705.787 811.89 707.286C811.768 708.27 811.661 709.256 811.569 710.243C799.3 717.427 785.297 725.059 773.5 732.776C771.592 732.714 769.838 732.605 767.933 732.937C764.394 733.554 759.521 737.863 756.283 736.265C756.131 735.758 755.979 735.25 755.827 734.743Z"/><path fill="#36AD00" fill-opacity="0.28627452" d="M854.858 675.73L855.691 675.711C856.965 675.671 857.544 675.514 858.785 675.242C859.194 676.375 858.961 676.994 858.397 678.026C854.898 684.427 819.487 705.332 811.569 710.243C811.661 709.256 811.768 708.27 811.89 707.286C813.119 705.787 813.884 704.736 814.98 703.135C814.894 701.524 814.886 701.261 813.861 700.052C825.564 693.104 836.99 685.702 848.806 678.943C850.782 677.812 852.696 676.473 854.858 675.73Z"/></svg>