<svg width="923" height="746" viewBox="0 0 923 746" fill="none" xmlns="http://www.w3.org/2000/svg">
<g clip-path="url(#clip0_377_14)">
<path d="M193.879 637.717C186.44 636.69 175.218 635.215 168.934 634.38C160.662 633.354 157.263 632.648 156.943 632.006C156.622 631.493 151.877 620.071 146.362 606.725C138.346 587.282 136.487 582.149 137 581.25C137.385 580.673 139.885 577.336 142.579 573.935C145.272 570.47 147.324 567.519 147.196 567.262C143.412 560.332 142.322 554.75 143.797 549.68C145.208 544.74 150.787 536.783 155.34 533.061C166.433 524.142 181.952 520.292 214.719 518.431C251.142 516.314 283.269 509.897 300.454 501.17C308.085 497.32 319.243 487.054 327.323 476.402C329.503 473.579 331.747 470.884 332.325 470.37C333.607 469.28 333.607 468.125 332.325 467.034C330.657 465.622 328.862 461.515 328.862 458.949C328.862 457.601 329.439 454.457 330.144 452.019C332.453 443.934 332.004 441.175 326.233 428.213C324.181 423.529 322.001 418.203 321.423 416.47C320.846 414.674 320.333 413.198 320.205 413.198C320.141 413.198 316.229 415.059 311.484 417.305C275.574 434.437 244.409 443.741 215.553 446.051C203.818 446.95 191.698 446.18 179.322 443.677C161.496 440.084 145.464 432.64 145.464 428.02C145.464 425.71 147.516 425.261 152.71 426.288C164.894 428.79 187.274 429.689 201.83 428.341C234.726 425.197 258.645 417.112 277.69 402.739C282.756 398.953 296.158 386.569 296.158 385.67C296.158 385.478 294.234 384.58 291.862 383.745C285.257 381.435 277.882 377.521 276.343 375.596C274.356 373.094 274.548 370.014 276.856 368.089C278.524 366.741 293.85 359.94 295.389 359.94C297.184 359.94 297.248 357.886 295.773 342.294C291.733 298.917 286.09 276.202 271.855 245.98C265.186 231.863 264.673 227.5 268.777 219.864C273.843 210.239 284.552 205.619 308.342 202.731C327.579 200.421 341.11 200.036 344.957 201.705C346.111 202.218 347.458 204.785 347.458 206.517C347.458 211.265 342.713 218.003 334.954 224.227C331.94 226.665 329.503 228.847 329.503 229.04C329.503 230.002 334.89 237.702 340.661 245.145C362.976 273.764 389.781 296.8 406.261 301.612C408.697 302.318 409.659 302.19 414.918 300.714C420.689 299.11 436.079 295.388 480.838 284.865C518.031 276.138 536.178 273.058 548.105 273.443C556.762 273.7 559.263 274.662 560.738 278.191C563.431 284.608 555.8 293.784 536.819 307.066C515.786 321.825 493.791 333.182 471.861 340.754C468.526 341.845 465.512 343.064 465.127 343.385C464.807 343.705 466.153 345.566 468.654 348.133L472.822 352.368L480.838 351.983C485.263 351.726 491.483 351.02 494.625 350.379C500.717 349.095 511.233 345.245 517.838 341.78C523.481 338.893 532.651 332.284 538.038 327.279C544.258 321.568 561.123 302.318 568.176 293.014C588.953 265.486 602.996 254.193 625.376 246.685C639.034 242.065 651.026 240.59 663.594 241.809C671.674 242.643 680.908 244.504 686.359 246.365L689.886 247.584L691.04 245.21C691.938 243.285 692.13 241.039 692.13 233.852C692.13 223.329 691.168 219.286 685.974 208.827C680.331 197.277 673.534 189.962 661.158 182.198C654.296 177.899 648.012 175.332 634.802 171.546C618.258 166.734 618.13 166.734 598.443 166.349C572.216 165.835 559.904 166.926 531.561 172.316C514.247 175.589 502.32 177.129 491.355 177.514C481.8 177.835 479.299 177.706 472.117 176.487C440.568 170.969 426.139 164.552 409.467 148.254C398.886 138.051 392.987 126.565 392.987 116.235C392.987 109.882 394.205 105.005 397.604 98.1396C399.784 93.7121 401.323 91.5946 406.068 86.9104C412.417 80.558 417.739 77.4138 427.743 74.0771C433.45 72.2163 436.335 72.0879 441.081 73.4996C453.585 77.2213 457.817 86.2688 456.791 107.444L456.342 116.427L458.266 118.994C460.703 122.33 466.218 125.603 470.642 126.373C477.183 127.528 492.958 129.068 493.599 128.683C493.984 128.426 498.537 127.977 503.731 127.72C512.516 127.207 514.568 126.822 530.856 122.587C561.123 114.823 565.868 114.053 590.812 113.155C606.972 112.577 620.567 114.245 646.152 119.956C657.246 122.459 665.454 125.218 676.804 130.223C698.158 139.655 708.289 146.008 718.806 156.467C732.336 170.006 737.018 177.065 742.019 191.502C745.226 200.678 745.931 206.196 745.482 217.04C745.033 227.756 743.751 235.456 741.442 242.001C739.39 247.84 730.22 266.577 728.104 269.144L726.565 271.005L731.823 276.844C739.262 285.057 743.622 290.64 748.496 298.083C760.231 316.114 770.106 340.882 774.787 364.175C778.186 380.922 778.699 386.055 778.635 405.498C778.635 422.566 778.571 424.299 777.032 431.678C776.134 435.977 775.557 439.506 775.813 439.506C776.07 439.506 777.673 438.736 779.276 437.838C781.777 436.426 782.867 436.17 785.817 436.426C788.702 436.683 789.728 437.068 791.524 438.865C794.538 441.752 795.564 444.896 796.333 453.302C798.449 476.787 794.089 503.994 783.829 530.88C778.891 543.905 766.579 566.685 757.794 578.94C750.804 588.822 739.775 596.522 728.681 599.281C722.718 600.821 711.945 601.078 706.109 599.923C697.645 598.19 687.898 591.196 686.038 585.485C684.178 579.839 686.744 574 692.771 570.021C695.4 568.289 697.837 565.53 702.326 559.562C713.612 544.355 720.281 532.997 726.501 518.431C732.4 504.443 741.186 482.562 741.186 481.792C741.186 481.407 739.967 482.113 738.492 483.332C728.81 491.096 721.307 494.433 707.969 497C700.338 498.475 688.218 498.475 682.896 497C677.189 495.46 669.815 491.61 663.851 487.118C658.593 483.14 655.194 479.161 652.693 474.156C651.924 472.552 651.154 471.14 651.026 471.012C650.962 470.948 648.397 472.424 645.447 474.413C636.598 480.316 614.988 490.326 592.416 499.117C586.965 501.235 580.745 503.673 578.693 504.507L574.845 506.111L574.076 509.833C572.024 519.971 566.317 528.634 557.467 534.986C548.618 541.403 539.961 549.103 524.443 564.246C502.256 585.935 490.713 594.854 475.387 602.233C460.254 609.484 448.391 612.435 434.347 612.435C425.755 612.435 424.344 612.243 421.009 610.96C415.88 608.842 411.583 605.249 409.339 601.142C407.736 598.19 407.479 596.971 407.415 592.865C407.415 585.421 409.531 583.175 418.893 580.545C431.334 577.144 444.992 565.786 458.972 547.499C462.242 543.135 465.192 539.478 465.512 539.221C466.987 538.323 465.769 537.681 462.434 537.681C460.318 537.681 456.855 537.04 454.419 536.205C450.25 534.73 450.122 534.73 448.647 535.885C443.261 540.184 435.309 542.815 418.316 545.766C395.103 549.809 387.6 551.734 374.07 557.252C369.517 559.113 363.361 561.423 360.411 562.321C345.278 567.07 322.77 568.995 266.404 570.47C251.206 570.855 237.868 571.305 236.714 571.433L234.726 571.754L238.894 581.828C241.203 587.346 243.511 592.993 244.024 594.276L245.05 596.651L242.485 599.73C239.664 603.131 215.874 634.316 213.501 637.653C211.705 640.155 211.962 640.155 193.879 637.717ZM445.633 607.238C459.1 604.928 475.323 598.319 487.571 589.977C498.793 582.405 503.859 578.042 521.942 560.396C532.843 549.745 542.783 540.697 547.913 536.719C559.199 527.992 564.137 522.987 566.701 517.597C571.447 507.715 571.767 497 567.792 484.744C564.906 475.76 558.429 464.467 551.376 456.19C548.298 452.596 546.887 450.35 546.887 449.195C546.887 448.169 549.259 448.361 551.119 449.516C555.159 452.211 566.509 468.959 570.228 477.814C572.537 483.396 574.461 490.968 574.909 495.973C575.358 501.042 575.422 501.106 580.039 499.117C581.707 498.411 587.286 496.165 592.416 494.24C613.192 486.22 633.327 476.851 643.267 470.435C649.743 466.264 649.359 467.74 646.665 456.061C644.1 444.704 643.395 434.565 644.229 421.155C645.447 402.931 647.948 389.649 653.398 371.425C656.156 362.185 657.631 359.747 659.426 361.223C660.773 362.314 660.645 362.763 657.054 375.34C651.539 394.205 649.359 407.487 648.461 426.352C647.499 448.682 653.398 471.076 662.761 480.252C669.879 487.31 680.78 492.636 690.27 493.727C697.068 494.497 717.459 491.225 722.589 488.594C730.22 484.615 739.454 477.044 743.879 471.14C746.508 467.547 748.368 466.841 749.522 469.023C750.355 470.563 745.738 483.717 735.799 507.844C726.629 530.045 720.153 542.686 712.458 553.402C702.454 567.262 699.376 570.92 695.977 573.23C689.565 577.465 688.283 581.7 692.002 586.512C697.004 593.057 704.506 596.073 715.792 596.073C728.104 596.073 735.543 593.442 745.418 585.485C750.868 581.186 754.908 575.989 761.513 564.952C767.541 554.942 774.787 541.146 777.416 534.794C785.688 514.966 791.588 490.07 792.293 472.231C792.678 462.991 791.588 447.27 790.434 445.025C787.997 440.212 784.983 439.635 779.468 442.971C771.901 447.591 768.567 449.324 769.08 448.49C769.337 448.04 769.785 445.923 770.042 443.741C770.298 441.624 771.132 437.068 771.837 433.731C774.21 423.144 774.723 415.893 774.338 400.429C773.697 374.57 769.208 353.523 758.499 326.445C750.74 306.938 734.773 284.351 718.998 270.748C701.621 255.733 685.14 248.546 663.081 246.3C651.86 245.145 641.664 246.365 628.646 250.279C606.716 257.016 592.095 268.695 571.703 295.901C559.519 312.071 542.911 329.845 532.651 337.481C517.389 348.903 501.23 355.127 483.531 356.41C479.94 356.667 476.991 356.988 476.991 357.116C476.991 357.309 478.594 360.004 480.517 363.212C484.814 370.399 487.443 377.136 488.918 384.644C490.2 391.445 490.329 402.995 489.238 408.257C488.405 412.043 485.712 416.085 484.557 415.38C483.852 414.93 483.98 413.198 485.327 402.61C486.032 396.964 485.391 388.815 483.66 381.756C480.582 369.115 469.68 353.33 458.715 345.502C454.547 342.55 441.786 335.556 440.503 335.556C440.055 335.556 427.165 344.54 411.84 355.576C390.486 370.848 384.138 375.725 384.907 376.11C385.484 376.43 385.933 377.072 385.933 377.521C385.933 379.703 359.834 405.819 352.78 410.76C351.626 411.594 350.664 412.428 350.664 412.62C350.664 413.326 353.935 414.417 361.245 416.15C376.956 419.807 402.349 418.395 420.561 412.813C433.001 409.027 436.335 408.065 437.233 408.129C438.836 408.129 433.321 412.556 429.217 414.545C421.33 418.331 403.183 421.86 387.087 422.695C379.456 423.08 378.559 423.272 378.751 424.299C378.879 425.261 367.337 433.5 363.938 433.5C359.77 433.5 362.5 421.078 362.5 420.5C362.5 420.451 362.593 420.39 362.742 420.321C363.174 420.118 364.071 419.834 364.5 419.5C365.376 418.843 365.481 420.095 362.742 420.321C361.471 420.425 359.588 420.309 356.884 419.679C343.611 416.535 342.264 413.262 351.434 406.14C356.115 402.482 379.521 379.895 379.521 378.933C379.521 378.74 375.545 381.115 370.735 384.259C358.552 392.023 345.919 399.466 334.505 405.626L324.886 410.824L325.207 413.005C325.399 414.225 327.579 419.871 330.016 425.582C332.517 431.293 334.826 437.132 335.21 438.544C336.3 442.522 336.108 447.014 334.569 452.981C333.671 456.318 333.286 459.141 333.543 460.168C335.595 468.317 353.037 473.643 374.07 472.68C386.895 472.103 403.503 467.226 419.599 459.398C431.59 453.559 437.169 448.233 443.325 436.811C445.633 432.512 446.916 430.78 447.878 430.651C450.956 430.202 450.122 434.437 445.633 442.009C439.862 451.762 432.616 458.243 421.587 463.569C412.609 467.868 404.016 471.076 393.82 473.835C382.855 476.851 376.507 477.621 365.734 477.172C355.025 476.723 348.805 475.568 341.943 472.937C339.186 471.846 336.942 471.076 336.877 471.14C336.236 472.424 326.297 485 323.475 488.08C318.025 494.048 309.881 500.978 305.071 503.865C295.453 509.512 277.818 514.774 256.721 518.367C242.293 520.741 230.815 522.025 211.192 523.244C202.728 523.821 192.917 524.72 189.39 525.233C167.972 528.57 156.301 534.922 149.953 546.665C147.324 551.605 147.067 556.097 149.055 560.781L150.338 563.605L153.865 559.177C155.788 556.675 160.085 551.156 163.355 546.857C167.459 541.339 169.704 538.965 170.601 538.965C171.307 538.965 182.721 540.376 195.995 542.109C209.269 543.905 221.004 545.381 222.03 545.51C223.825 545.702 224.146 546.215 227.993 555.648C230.238 561.102 232.354 565.85 232.674 566.171C233.38 566.877 239.728 566.813 270.829 565.915C324.245 564.246 345.406 562.385 359.578 557.894C362.399 556.995 368.491 554.685 373.236 552.696C385.805 547.499 393.756 545.445 418.124 541.21C431.847 538.772 439.221 536.719 443.261 534.024L445.826 532.355L444.159 531.521C442.299 530.559 441.658 528.955 442.427 527.03C443.197 524.784 445.056 524.912 451.725 527.607C457.753 530.045 458.394 530.174 464.55 530.11C469.873 530.045 472.053 529.66 477.055 528.056C484.429 525.618 497.318 519.394 512.452 510.795C518.736 507.202 524.507 504.186 525.341 503.93C526.944 503.545 528.932 505.02 528.932 506.625C528.932 507.523 528.483 507.972 524.443 511.309C521.942 513.362 509.374 520.485 500.396 524.976C494.112 528.12 476.926 535.115 475.452 535.115C474.554 535.115 466.474 544.868 459.741 553.98C455.829 559.241 444.223 571.176 439.542 574.641C433.386 579.325 427.486 582.47 421.074 584.587C417.803 585.614 414.469 586.961 413.699 587.41C410.814 589.335 411.262 596.715 414.533 601.014C416.328 603.388 420.625 606.083 424.6 607.302C428.32 608.521 438.387 608.457 445.633 607.238ZM300.903 378.869C300.839 376.944 298.21 364.303 297.761 363.918C297.441 363.597 281.73 370.142 280.383 371.169C279.357 371.875 279.357 372.131 280.063 373.03C281.922 375.275 296.35 381.179 299.364 380.922C300.711 380.794 300.967 380.473 300.903 378.869ZM468.27 333.952C478.594 330.295 489.046 325.995 495.074 322.98C508.476 316.242 526.623 305.141 536.947 297.377C545.476 290.896 553.299 283.389 553.299 281.592C553.299 280.63 550.478 280.565 546.374 281.4C531.689 284.48 510.271 294.233 485.006 309.44C473.784 316.178 451.341 330.936 451.341 331.642C451.341 331.963 459.292 336.711 460.062 336.84C460.126 336.84 463.845 335.556 468.27 333.952ZM725.218 262.278C731.631 251.305 735.607 240.975 737.018 231.606C738.108 224.612 738.3 207.48 737.338 201.64C735.543 190.732 731.246 179.888 726.052 173.471C711.688 155.761 702.454 148.895 677.125 137.281C666.031 132.212 656.284 128.875 645.511 126.437C634.931 124.063 616.527 121.496 606.202 120.919C597.674 120.405 566.445 121.56 559.391 122.587C556.954 122.972 545.22 125.731 533.421 128.747C515.145 133.367 510.656 134.265 503.282 134.843C483.724 136.447 470.322 134.65 460.254 129.132C456.15 126.95 453.585 123.999 451.212 118.865L449.289 114.823L449.16 101.155C449.032 85.563 448.776 84.5363 444.03 81.7771C435.438 76.7079 420.496 80.8788 410.236 91.1454C407.287 94.0971 404.658 97.4338 403.632 99.5513C401.451 103.979 399.848 113.475 400.169 120.02C400.361 124.191 400.746 125.603 402.798 129.581C407.351 138.308 412.545 143.89 424.6 152.938C431.077 157.879 442.299 163.076 451.982 165.771C458.074 167.375 463.332 168.274 473.528 169.3C494.112 171.418 503.41 170.584 541.18 163.333C559.391 159.868 566.381 159.098 583.438 158.649C606.267 158.135 613.385 158.841 629.159 163.205C646.216 168.017 650.513 169.493 658.785 173.6C669.879 179.054 680.075 187.524 685.974 196.25C689.629 201.576 695.721 214.474 697.837 221.211C700.53 229.745 699.761 241.552 696.234 247.584C695.529 248.739 695.016 249.765 695.144 249.83C701.236 252.396 712.329 259.262 718.421 264.267C720.217 265.679 721.82 266.898 722.076 266.898C722.333 266.898 723.744 264.845 725.218 262.278Z" fill="black"/>
<path d="M725.218 262.278C731.631 251.305 735.607 240.975 737.018 231.606C738.108 224.612 738.3 207.48 737.338 201.64C735.543 190.732 731.246 179.888 726.052 173.471C711.688 155.761 702.454 148.895 677.125 137.281C666.031 132.212 656.284 128.875 645.511 126.437C634.931 124.063 616.527 121.496 606.202 120.919C597.674 120.405 566.445 121.56 559.391 122.587C556.954 122.972 545.22 125.731 533.421 128.747C515.145 133.367 510.656 134.265 503.282 134.843C483.724 136.447 470.322 134.65 460.254 129.132C456.15 126.95 453.585 123.999 451.212 118.865L449.289 114.823L449.16 101.155C449.032 85.563 448.776 84.5363 444.03 81.7771C435.438 76.7079 420.496 80.8788 410.236 91.1454C407.287 94.0971 404.658 97.4338 403.632 99.5513C401.451 103.979 399.848 113.475 400.169 120.02C400.361 124.191 400.746 125.603 402.798 129.581C407.351 138.308 412.545 143.89 424.6 152.938C431.077 157.879 442.299 163.076 451.982 165.771C458.074 167.375 463.332 168.274 473.528 169.3C494.112 171.418 503.41 170.584 541.18 163.333C559.391 159.868 566.381 159.098 583.438 158.649C606.267 158.135 613.385 158.841 629.159 163.205C646.216 168.017 650.513 169.493 658.785 173.6C669.879 179.054 680.075 187.524 685.974 196.25C689.629 201.576 695.721 214.474 697.837 221.211C700.53 229.745 699.761 241.552 696.234 247.584C695.529 248.739 695.016 249.765 695.144 249.83C701.236 252.396 712.329 259.262 718.421 264.267C720.217 265.679 721.82 266.898 722.076 266.898C722.333 266.898 723.744 264.845 725.218 262.278Z" fill="white"/>
<path d="M300.903 378.869C300.839 376.944 298.21 364.303 297.761 363.918C297.441 363.597 281.73 370.142 280.383 371.169C279.357 371.875 279.357 372.131 280.063 373.03C281.922 375.275 296.35 381.179 299.364 380.922C300.711 380.794 300.967 380.473 300.903 378.869Z" fill="white"/>
<path d="M445.633 607.238C459.1 604.928 475.323 598.319 487.571 589.977C498.793 582.405 503.859 578.042 521.942 560.396C532.843 549.745 542.783 540.697 547.913 536.719C559.199 527.992 564.137 522.987 566.701 517.597C571.447 507.715 571.767 497 567.792 484.744C564.906 475.76 558.429 464.467 551.376 456.19C548.298 452.596 546.887 450.35 546.887 449.195C546.887 448.169 549.259 448.361 551.119 449.516C555.159 452.211 566.509 468.959 570.228 477.814C572.537 483.396 574.461 490.968 574.909 495.973C575.358 501.042 575.422 501.106 580.039 499.117C581.707 498.411 587.286 496.165 592.416 494.24C613.192 486.22 633.327 476.851 643.267 470.435C649.743 466.264 649.359 467.74 646.665 456.061C644.1 444.704 643.395 434.565 644.229 421.155C645.447 402.931 647.948 389.649 653.398 371.425C656.156 362.185 657.631 359.747 659.426 361.223C660.773 362.314 660.645 362.763 657.054 375.34C651.539 394.205 649.359 407.487 648.461 426.352C647.499 448.682 653.398 471.076 662.761 480.252C669.879 487.31 680.78 492.636 690.27 493.727C697.068 494.497 717.459 491.225 722.589 488.594C730.22 484.615 739.454 477.044 743.879 471.14C746.508 467.547 748.368 466.841 749.522 469.023C750.355 470.563 745.738 483.717 735.799 507.844C726.629 530.045 720.153 542.686 712.458 553.402C702.454 567.262 699.376 570.92 695.977 573.23C689.565 577.465 688.283 581.7 692.002 586.512C697.004 593.057 704.506 596.073 715.792 596.073C728.104 596.073 735.543 593.442 745.418 585.485C750.868 581.186 754.908 575.989 761.513 564.952C767.541 554.942 774.787 541.146 777.416 534.794C785.688 514.966 791.588 490.07 792.293 472.231C792.678 462.991 791.588 447.27 790.434 445.025C787.997 440.212 784.983 439.635 779.468 442.971C771.901 447.591 768.567 449.324 769.08 448.49C769.337 448.04 769.785 445.923 770.042 443.741C770.298 441.624 771.132 437.068 771.837 433.731C774.21 423.144 774.723 415.893 774.338 400.429C773.697 374.57 769.208 353.523 758.499 326.445C750.74 306.938 734.773 284.351 718.998 270.748C701.621 255.733 685.14 248.546 663.081 246.3C651.86 245.145 641.664 246.365 628.646 250.279C606.716 257.016 592.095 268.695 571.703 295.901C559.519 312.071 542.911 329.845 532.651 337.481C517.389 348.903 501.23 355.127 483.531 356.41C479.94 356.667 476.991 356.988 476.991 357.116C476.991 357.309 478.594 360.004 480.517 363.212C484.814 370.399 487.443 377.136 488.918 384.644C490.2 391.445 490.329 402.995 489.238 408.257C488.405 412.043 485.712 416.085 484.557 415.38C483.852 414.93 483.98 413.198 485.327 402.61C486.032 396.964 485.391 388.815 483.66 381.756C480.582 369.115 469.68 353.33 458.715 345.502C454.547 342.55 441.786 335.556 440.503 335.556C440.055 335.556 427.165 344.54 411.84 355.576C390.486 370.848 384.138 375.725 384.907 376.11C385.484 376.43 385.933 377.072 385.933 377.521C385.933 379.703 359.834 405.819 352.78 410.76C351.626 411.594 350.664 412.428 350.664 412.62C350.664 413.326 353.935 414.417 361.245 416.15C376.956 419.807 402.349 418.395 420.561 412.813C433.001 409.027 436.335 408.065 437.233 408.129C438.836 408.129 433.321 412.556 429.217 414.545C421.33 418.331 403.183 421.86 387.087 422.695C379.456 423.08 378.559 423.272 378.751 424.299C378.879 425.261 367.337 433.5 363.938 433.5C359.77 433.5 362.5 421.078 362.5 420.5C362.5 420.451 362.593 420.39 362.742 420.321C361.471 420.425 359.588 420.309 356.884 419.679C343.611 416.535 342.264 413.262 351.434 406.14C356.115 402.482 379.521 379.895 379.521 378.933C379.521 378.74 375.545 381.115 370.735 384.259C358.552 392.023 345.919 399.466 334.505 405.626L324.886 410.824L325.207 413.005C325.399 414.225 327.579 419.871 330.016 425.582C332.517 431.293 334.826 437.132 335.21 438.544C336.3 442.522 336.108 447.014 334.569 452.981C333.671 456.318 333.286 459.141 333.543 460.168C335.595 468.317 353.037 473.643 374.07 472.68C386.895 472.103 403.503 467.226 419.599 459.398C431.59 453.559 437.169 448.233 443.325 436.811C445.633 432.512 446.916 430.78 447.878 430.651C450.956 430.202 450.122 434.437 445.633 442.009C439.862 451.762 432.616 458.243 421.587 463.569C412.609 467.868 404.016 471.076 393.82 473.835C382.855 476.851 376.507 477.621 365.734 477.172C355.025 476.723 348.805 475.568 341.943 472.937C339.186 471.846 336.942 471.076 336.877 471.14C336.236 472.424 326.297 485 323.475 488.08C318.025 494.048 309.881 500.978 305.071 503.865C295.453 509.512 277.818 514.774 256.721 518.367C242.293 520.741 230.815 522.025 211.192 523.244C202.728 523.821 192.917 524.72 189.39 525.233C167.972 528.57 156.301 534.922 149.953 546.665C147.324 551.605 147.067 556.097 149.055 560.781L150.338 563.605L153.865 559.177C155.788 556.675 160.085 551.156 163.355 546.857C167.459 541.339 169.704 538.965 170.601 538.965C171.307 538.965 182.721 540.376 195.995 542.109C209.269 543.905 221.004 545.381 222.03 545.51C223.825 545.702 224.146 546.215 227.993 555.648C230.238 561.102 232.354 565.85 232.674 566.171C233.38 566.877 239.728 566.813 270.829 565.915C324.245 564.246 345.406 562.385 359.578 557.894C362.399 556.995 368.491 554.685 373.236 552.696C385.805 547.499 393.756 545.445 418.124 541.21C431.847 538.772 439.221 536.719 443.261 534.024L445.826 532.355L444.159 531.521C442.299 530.559 441.658 528.955 442.427 527.03C443.197 524.784 445.056 524.912 451.725 527.607C457.753 530.045 458.394 530.174 464.55 530.11C469.873 530.045 472.053 529.66 477.055 528.056C484.429 525.618 497.318 519.394 512.452 510.795C518.736 507.202 524.507 504.186 525.341 503.93C526.944 503.545 528.932 505.02 528.932 506.625C528.932 507.523 528.483 507.972 524.443 511.309C521.942 513.362 509.374 520.485 500.396 524.976C494.112 528.12 476.926 535.115 475.452 535.115C474.554 535.115 466.474 544.868 459.741 553.98C455.829 559.241 444.223 571.176 439.542 574.641C433.386 579.325 427.486 582.47 421.074 584.587C417.803 585.614 414.469 586.961 413.699 587.41C410.814 589.335 411.262 596.715 414.533 601.014C416.328 603.388 420.625 606.083 424.6 607.302C428.32 608.521 438.387 608.457 445.633 607.238Z" fill="white"/>
<path d="M366.978 438.176C361.719 435.031 361.335 426.241 366.208 422.583C367.811 421.428 368.324 421.428 372.044 422.07C374.352 422.455 377.366 422.776 378.841 422.776C382.047 422.776 382.817 423.866 382.817 428.358C382.752 436.636 373.647 442.282 366.978 438.176Z" fill="#16A75A"/>
<path d="M456.304 335.317L449.314 331.403L451.174 329.927C458.548 323.895 489.328 304.581 505.039 296.175C531.01 282.187 555.249 274.615 559.161 279.363C562.303 283.149 544.284 298.742 519.724 313.5C504.334 322.74 490.739 329.093 473.425 335.188C468.873 336.793 464.769 338.333 464.256 338.589C463.614 338.974 461.178 338.012 456.304 335.317Z" fill="#16A75A"/>
<path fill-rule="evenodd" clip-rule="evenodd" d="M162.159 625.759L207.597 632.549L235.567 596.1L218.005 552.634L172.567 545.845L144.598 582.292L162.159 625.759ZM209.048 636.138C208.735 636.265 208.392 636.315 208.096 636.256L160.508 629.091C159.916 628.976 159.388 628.567 159.172 628.032L140.87 582.733C140.623 582.121 140.719 581.461 141.064 580.966L170.35 542.831C170.773 542.304 171.398 542.052 172.068 542.137L219.625 549.225C220.217 549.341 220.745 549.75 220.992 550.361L239.295 595.661C239.542 596.272 239.445 596.933 239.069 597.351L209.784 635.486C209.641 635.81 209.36 636.012 209.048 636.138Z" fill="#0F984F"/>
<path fill-rule="evenodd" clip-rule="evenodd" d="M143.188 583.749C142.407 584.065 141.488 583.814 141.054 583.189C140.45 582.367 140.657 581.306 141.501 580.698L176.219 556.008C177.063 555.401 178.139 555.588 178.744 556.41C179.348 557.232 179.141 558.293 178.296 558.901L143.579 583.591C143.47 583.547 143.344 583.686 143.188 583.749Z" fill="#0F984F"/>
<path fill-rule="evenodd" clip-rule="evenodd" d="M220.031 552.702C219.874 552.766 219.797 552.797 219.609 552.784L177.484 559.14C176.454 559.29 175.537 558.593 175.432 557.659C175.327 556.724 176.017 555.734 176.969 555.616L219.094 549.26C220.123 549.11 221.041 549.806 221.146 550.741C221.298 551.568 220.812 552.387 220.031 552.702Z" fill="#0F984F"/>
<path fill-rule="evenodd" clip-rule="evenodd" d="M238.302 597.927C238.067 598.021 237.803 598.04 237.459 598.09L224.662 597.218L170.7 619.02L162.178 628.506C161.473 629.235 160.334 629.339 159.604 628.657C158.874 627.974 158.786 626.855 159.49 626.126L168.263 616.361C168.466 616.19 168.67 616.02 168.982 615.894L223.803 593.743C224.037 593.649 224.381 593.599 224.646 593.581L237.895 594.448C238.908 594.483 239.622 595.35 239.571 596.348C239.428 597.117 238.926 597.674 238.302 597.927Z" fill="#0F984F"/>
<path fill-rule="evenodd" clip-rule="evenodd" d="M170.309 619.176C169.997 619.303 169.731 619.32 169.436 619.263C168.469 619.12 167.756 618.252 167.838 617.331L175.481 557.106C175.641 556.153 176.533 555.437 177.468 555.504C178.434 555.646 179.148 556.514 179.066 557.435L171.453 617.737C171.357 618.397 170.856 618.955 170.309 619.176Z" fill="#0F984F"/>
<path fill-rule="evenodd" clip-rule="evenodd" d="M225.052 597.061C224.428 597.313 223.758 597.228 223.229 596.82L176.051 558.743C175.274 558.169 175.154 556.973 175.859 556.244C176.455 555.471 177.671 555.334 178.401 556.017L225.58 594.093C226.357 594.668 226.476 595.863 225.771 596.592C225.599 596.84 225.365 596.934 225.052 597.061Z" fill="#0F984F"/>
<path fill-rule="evenodd" clip-rule="evenodd" d="M170.309 619.177C169.606 619.461 168.718 619.287 168.206 618.694L143.075 587.971C142.502 587.225 142.6 586.119 143.336 585.467C144.102 584.89 145.224 584.971 145.876 585.684L171.006 616.407C171.58 617.152 171.482 618.259 170.746 618.911C170.621 619.051 170.465 619.114 170.309 619.177Z" fill="#0F984F"/>
<path fill-rule="evenodd" clip-rule="evenodd" d="M225.052 597.06C224.896 597.123 224.74 597.186 224.552 597.172C223.57 597.214 222.653 596.518 222.626 595.551L219.518 555.931C219.491 554.965 220.211 554.052 221.194 554.01C222.177 553.969 223.093 554.664 223.121 555.631L226.228 595.251C226.272 596.034 225.833 596.744 225.052 597.06Z" fill="#0F984F"/>
<path fill-rule="evenodd" clip-rule="evenodd" d="M209.047 636.139C208.579 636.329 208.127 636.334 207.582 636.11L168.875 619.226C167.972 618.79 167.571 617.797 167.996 616.826C168.452 615.931 169.467 615.521 170.448 615.924L209.155 632.808C210.057 633.243 210.459 634.237 210.033 635.208C209.845 635.64 209.516 635.95 209.047 636.139Z" fill="#0F984F"/>
<path fill-rule="evenodd" clip-rule="evenodd" d="M209.047 636.14C208.657 636.298 208.127 636.334 207.691 636.155C206.741 635.828 206.309 634.758 206.656 633.818L222.692 594.816C223.04 593.877 224.133 593.435 225.082 593.762C226.032 594.089 226.464 595.158 226.118 596.099L210.081 635.1C209.923 635.609 209.516 635.95 209.047 636.14Z" fill="#0F984F"/>
<path fill-rule="evenodd" clip-rule="evenodd" d="M177.875 558.984C176.938 559.362 175.848 558.914 175.478 557.997L170.077 544.629C169.707 543.712 170.178 542.632 171.116 542.254C172.053 541.875 173.142 542.324 173.513 543.241L178.945 556.685C179.284 557.525 178.812 558.605 177.875 558.984Z" fill="#0F984F"/>
</g>
<defs>
<clipPath id="clip0_377_14">
<rect width="923" height="746" fill="white"/>
</clipPath>
</defs>
</svg>
